<svg xmlns="http://www.w3.org/2000/svg" viewBox="0 0 1200 800" preserveAspectRatio="xMidYMid slice">
  <defs>
    <linearGradient id="sky" x1="0" x2="0" y1="0" y2="1">
      <stop offset="0" stop-color="#87CEEB"/>
      <stop offset="0.4" stop-color="#fde7c4"/>
      <stop offset="0.8" stop-color="#f4b87a"/>
      <stop offset="1" stop-color="#c97245"/>
    </linearGradient>
    <radialGradient id="sun" cx="75%" cy="20%" r="25%">
      <stop offset="0" stop-color="#f9d87a"/>
      <stop offset="0.6" stop-color="#eca85a" stop-opacity="0.4"/>
      <stop offset="1" stop-color="#d97a3d" stop-opacity="0"/>
    </radialGradient>
    <linearGradient id="grass" x1="0" x2="0" y1="0" y2="1">
      <stop offset="0" stop-color="#5a9a4a"/>
      <stop offset="1" stop-color="#3d7a2e"/>
    </linearGradient>
  </defs>
  <rect width="1200" height="800" fill="url(#sky)"/>
  <rect width="1200" height="800" fill="url(#sun)"/>
  <!-- clouds -->
  <g fill="white" opacity="0.6">
    <ellipse cx="200" cy="100" rx="80" ry="30"/>
    <ellipse cx="250" cy="90" rx="60" ry="25"/>
    <ellipse cx="700" cy="130" rx="90" ry="28"/>
    <ellipse cx="760" cy="120" rx="50" ry="22"/>
  </g>
  <!-- butterflies -->
  <g transform="translate(400 200)" fill="#E87461" opacity="0.7">
    <ellipse cx="-8" cy="0" rx="8" ry="12" transform="rotate(-20)"/>
    <ellipse cx="8" cy="0" rx="8" ry="12" transform="rotate(20)"/>
    <rect x="-1" y="-4" width="2" height="14" rx="1" fill="#5a2f1c"/>
  </g>
  <g transform="translate(850 180)" fill="#D4A54A" opacity="0.6">
    <ellipse cx="-6" cy="0" rx="6" ry="10" transform="rotate(-15)"/>
    <ellipse cx="6" cy="0" rx="6" ry="10" transform="rotate(15)"/>
    <rect x="-1" y="-3" width="2" height="12" rx="1" fill="#5a2f1c"/>
  </g>
  <!-- cerrado hills -->
  <path d="M0 520 C200 480 400 510 600 500 C800 490 1000 520 1200 510 L1200 800 L0 800Z" fill="#8a6a3a" opacity="0.3"/>
  <path d="M0 560 C200 530 380 550 560 555 C720 565 900 540 1080 560 L1200 565 L1200 800 L0 800Z" fill="#6d8a44"/>
  <!-- ESCOLA (fundo, lateral direita das colinas) -->
  <g transform="translate(700 555)">
    <!-- Corpo -->
    <rect x="-50" y="-55" width="100" height="55" fill="#fefdf6" stroke="#a87545" stroke-width="2"/>
    <!-- Telhado -->
    <path d="M-58 -55 L 58 -55 L 40 -78 L -40 -78 Z" fill="#E87461"/>
    <!-- Mastro com bandeira -->
    <line x1="0" y1="-78" x2="0" y2="-98" stroke="#5a3a23" stroke-width="2.5"/>
    <path d="M0 -98 L 14 -93 L 14 -83 L 0 -88 Z" fill="#E8C94A"/>
    <!-- Porta -->
    <rect x="-8" y="-26" width="16" height="26" fill="#5a3a23"/>
    <circle cx="4" cy="-13" r="1" fill="#D4A54A"/>
    <!-- Janelas -->
    <rect x="-38" y="-44" width="18" height="14" fill="#7ccae0" stroke="#a87545" stroke-width="1.2"/>
    <line x1="-29" y1="-44" x2="-29" y2="-30" stroke="#fff" stroke-width="0.8"/>
    <line x1="-38" y1="-37" x2="-20" y2="-37" stroke="#fff" stroke-width="0.8"/>
    <rect x="20" y="-44" width="18" height="14" fill="#7ccae0" stroke="#a87545" stroke-width="1.2"/>
    <line x1="29" y1="-44" x2="29" y2="-30" stroke="#fff" stroke-width="0.8"/>
    <line x1="20" y1="-37" x2="38" y2="-37" stroke="#fff" stroke-width="0.8"/>
  </g>
  <!-- PLAQUINHA "PAE-DF · Alimentação é currículo" ao lado da escola -->
  <g transform="translate(810 555)">
    <rect x="-1.5" y="0" width="3" height="32" fill="#5a3a23"/>
    <rect x="-50" y="-22" width="100" height="26" rx="3" fill="#fefdf6" stroke="#4A7C59" stroke-width="1.5"/>
    <text x="0" y="-10" text-anchor="middle" font-family="Inter,sans-serif" font-size="9" font-weight="700" fill="#4A7C59" letter-spacing="1.2">PAE-DF</text>
    <line x1="-30" y1="-6" x2="30" y2="-6" stroke="#D4A54A" stroke-width="1.2"/>
    <text x="0" y="0" text-anchor="middle" font-family="Inter,sans-serif" font-size="5.8" fill="#7a6a4a" font-style="italic" letter-spacing="0.5">Alimentação é currículo</text>
  </g>
  <!-- grass -->
  <path d="M0 600 C240 580 420 600 640 595 C860 590 1020 610 1200 600 L1200 800 L0 800Z" fill="url(#grass)"/>
  <!-- flowers -->
  <g>
    <circle cx="150" cy="585" r="6" fill="#E87461"/>
    <circle cx="155" cy="580" r="5" fill="#F5A08F"/>
    <circle cx="350" cy="595" r="5" fill="#D4A54A"/>
    <circle cx="550" cy="590" r="6" fill="#E8C94A"/>
    <circle cx="900" cy="598" r="5" fill="#E87461"/>
    <circle cx="1050" cy="592" r="6" fill="#D4A54A"/>
  </g>
  <!-- pequizeiro tree -->
  <g transform="translate(900 560)">
    <rect x="-8" y="-180" width="16" height="180" rx="4" fill="#8B5E3C"/>
    <circle cx="0" cy="-210" r="60" fill="#4A7C59"/>
    <circle cx="-35" cy="-195" r="40" fill="#3d6a40"/>
    <circle cx="35" cy="-195" r="40" fill="#3d6a40"/>
    <circle cx="-15" cy="-175" r="8" fill="#E8C94A"/>
    <circle cx="20" cy="-220" r="7" fill="#E8C94A"/>
    <circle cx="-30" cy="-210" r="6" fill="#E8C94A"/>
  </g>
  <!-- buriti palm -->
  <g transform="translate(100 570)">
    <rect x="-4" y="-200" width="8" height="200" fill="#8B5E3C" rx="3"/>
    <g stroke="#2F3D1E" stroke-width="5" fill="none" stroke-linecap="round">
      <path d="M0 -200 Q-60 -240 -100 -230"/>
      <path d="M0 -200 Q60 -240 100 -230"/>
      <path d="M0 -200 Q-30 -260 -60 -270"/>
      <path d="M0 -200 Q30 -260 60 -270"/>
      <path d="M0 -200 Q0 -270 -5 -280"/>
    </g>
    <circle cx="-15" cy="-190" r="6" fill="#D4A54A"/>
    <circle cx="15" cy="-185" r="6" fill="#D4A54A"/>
    <circle cx="0" cy="-180" r="6" fill="#D4A54A"/>
  </g>
  <!-- HORTA ESCOLAR (primeiro plano direita) -->
  <g transform="translate(1080 720)">
    <!-- Borda do canteiro -->
    <rect x="-95" y="-22" width="190" height="32" fill="#8b6238"/>
    <rect x="-95" y="-22" width="190" height="5" fill="#5a3a23"/>
    <!-- Solo -->
    <rect x="-87" y="-30" width="174" height="12" fill="#5a3a23"/>
    <!-- TOMATE -->
    <g transform="translate(-60,-30)">
      <line x1="0" y1="0" x2="0" y2="-38" stroke="#4A7C59" stroke-width="3"/>
      <ellipse cx="-6" cy="-12" rx="6" ry="3" fill="#4A7C59" transform="rotate(-30 -6 -12)"/>
      <ellipse cx="6" cy="-22" rx="7" ry="4" fill="#5A9A6E" transform="rotate(30 6 -22)"/>
      <circle cx="-7" cy="-18" r="5" fill="#E87461"/>
      <circle cx="6" cy="-30" r="5" fill="#c83232"/>
    </g>
    <!-- ABÓBORA -->
    <g transform="translate(-20,-30)">
      <line x1="0" y1="0" x2="0" y2="-18" stroke="#4A7C59" stroke-width="3"/>
      <ellipse cx="-4" cy="-16" rx="6" ry="3" fill="#4A7C59" transform="rotate(-25 -4 -16)"/>
      <ellipse cx="5" cy="-19" rx="6" ry="3" fill="#5A9A6E" transform="rotate(25 5 -19)"/>
      <circle cx="0" cy="-12" r="9" fill="#f57c00"/>
      <line x1="-6" y1="-14" x2="6" y2="-14" stroke="#c25a00" stroke-width="0.8"/>
      <line x1="-7" y1="-11" x2="7" y2="-11" stroke="#c25a00" stroke-width="0.8"/>
      <line x1="-5" y1="-8" x2="5" y2="-8" stroke="#c25a00" stroke-width="0.8"/>
    </g>
    <!-- ALFACE -->
    <g transform="translate(22,-30)">
      <line x1="0" y1="0" x2="0" y2="-15" stroke="#4A7C59" stroke-width="2"/>
      <ellipse cx="-8" cy="-14" rx="9" ry="5" fill="#5A9A6E"/>
      <ellipse cx="8" cy="-14" rx="9" ry="5" fill="#4A7C59"/>
      <ellipse cx="0" cy="-20" rx="11" ry="5" fill="#5A9A6E"/>
      <ellipse cx="-4" cy="-23" rx="6" ry="3" fill="#4A7C59"/>
      <ellipse cx="4" cy="-23" rx="6" ry="3" fill="#5A9A6E"/>
    </g>
    <!-- CENOURA -->
    <g transform="translate(62,-30)">
      <path d="M-6 -10 L 6 -10 L 9 14 L -9 14 Z" fill="#f57c00"/>
      <path d="M-3 -10 Q -3 -16 -7 -18" stroke="#4A7C59" stroke-width="2.2" fill="none"/>
      <path d="M3 -10 Q 3 -16 7 -18" stroke="#4A7C59" stroke-width="2.2" fill="none"/>
      <path d="M0 -10 Q 0 -18 0 -20" stroke="#4A7C59" stroke-width="2.2" fill="none"/>
    </g>
    <!-- PLAQUINHA "HORTA" -->
    <g transform="translate(-95,-48)">
      <rect x="-2" y="0" width="4" height="22" fill="#5a3a23"/>
      <rect x="-24" y="-14" width="48" height="16" rx="2" fill="#fefdf6" stroke="#4A7C59" stroke-width="1.3"/>
      <text x="0" y="-3" text-anchor="middle" font-family="Inter,sans-serif" font-size="9" font-weight="700" fill="#4A7C59" letter-spacing="1.2">HORTA</text>
    </g>
  </g>
  <!-- children silhouettes with colored clothes -->
  <g transform="translate(350 580)">
    <!-- child 1 -->
    <circle cx="0" cy="-55" r="14" fill="#8B5E3C"/>
    <path d="M-14 -41 Q0 -35 14 -41 L16 -5 Q0 0 -16 -5Z" fill="#E87461"/>
    <rect x="-12" y="-5" width="9" height="25" rx="3" fill="#5a2f1c"/>
    <rect x="3" y="-5" width="9" height="25" rx="3" fill="#5a2f1c"/>
    <!-- child 2 -->
    <circle cx="50" cy="-50" r="12" fill="#D4A54A"/>
    <path d="M36 -38 Q50 -32 64 -38 L66 -5 Q50 0 34 -5Z" fill="#5B9BD5"/>
    <rect x="38" y="-5" width="8" height="22" rx="3" fill="#3d2415"/>
    <rect x="54" y="-5" width="8" height="22" rx="3" fill="#3d2415"/>
    <!-- child 3 -->
    <circle cx="100" cy="-52" r="13" fill="#6d4a2a"/>
    <path d="M87 -39 Q100 -33 113 -39 L115 -3 Q100 2 85 -3Z" fill="#4A7C59"/>
    <rect x="89" y="-3" width="8" height="23" rx="3" fill="#3d2415"/>
    <rect x="103" y="-3" width="8" height="23" rx="3" fill="#3d2415"/>
  </g>
  <!-- table with food -->
  <g transform="translate(500 620)">
    <rect x="-120" y="-20" width="240" height="12" rx="3" fill="#c8905d"/>
    <rect x="-100" y="-8" width="8" height="50" fill="#8B5E3C"/>
    <rect x="92" y="-8" width="8" height="50" fill="#8B5E3C"/>
    <!-- plates -->
    <ellipse cx="-60" cy="-28" rx="28" ry="10" fill="#fdf5e6"/>
    <circle cx="-65" cy="-32" r="5" fill="#E87461"/>
    <circle cx="-55" cy="-34" r="4" fill="#4A7C59"/>
    <circle cx="-62" cy="-28" r="4" fill="#D4A54A"/>
    <ellipse cx="0" cy="-28" rx="28" ry="10" fill="#fdf5e6"/>
    <circle cx="-5" cy="-32" r="5" fill="#8B5E3C"/>
    <circle cx="5" cy="-34" r="4" fill="#E8C94A"/>
    <circle cx="0" cy="-28" r="6" fill="#4A7C59"/>
    <ellipse cx="60" cy="-28" rx="28" ry="10" fill="#fdf5e6"/>
    <circle cx="55" cy="-32" r="5" fill="#E87461"/>
    <circle cx="65" cy="-30" r="5" fill="#D4A54A"/>
    <!-- juice glasses -->
    <rect x="-90" y="-42" width="10" height="16" rx="2" fill="#F5A08F" opacity="0.7"/>
    <rect x="80" y="-42" width="10" height="16" rx="2" fill="#E8C94A" opacity="0.7"/>
  </g>
</svg>