<svg xmlns="http://www.w3.org/2000/svg" viewBox="0 0 600 750">
  <defs>
    <linearGradient id="bg-sobre" x1="0" x2="0" y1="0" y2="1">
      <stop offset="0" stop-color="#fdf6e8"/>
      <stop offset="1" stop-color="#f5f0e6"/>
    </linearGradient>
    <linearGradient id="grad-mesa" x1="0" x2="0" y1="0" y2="1">
      <stop offset="0" stop-color="#a87545"/>
      <stop offset="1" stop-color="#6e4828"/>
    </linearGradient>
    <linearGradient id="grad-parede" x1="0" x2="0" y1="0" y2="1">
      <stop offset="0" stop-color="#fef8e8"/>
      <stop offset="1" stop-color="#f5ecd0"/>
    </linearGradient>
    <linearGradient id="grad-janela" x1="0" x2="0" y1="0" y2="1">
      <stop offset="0" stop-color="#bae3f5"/>
      <stop offset="1" stop-color="#cce8f2"/>
    </linearGradient>
  </defs>

  <rect width="600" height="750" fill="url(#bg-sobre)"/>

  <!-- HEADER -->
  <text x="300" y="50" text-anchor="middle" font-family="Inter,sans-serif" font-size="16" font-weight="700" letter-spacing="3.5" fill="#7a6a4a">FUNDAMENTOS · CAPÍTULO 00</text>
  <text x="300" y="92" text-anchor="middle" font-family="Inter,sans-serif" font-size="34" font-weight="700" fill="#3a3a3a">Direito, <tspan font-style="italic" fill="#E87461">não favor</tspan></text>

  <!-- ============ CENA DE REFEITÓRIO ============ -->
  <!-- Parede de fundo -->
  <rect x="50" y="125" width="500" height="320" rx="14" fill="url(#grad-parede)" stroke="#d4c8a8" stroke-width="2"/>

  <!-- Janela com vista (Cerrado) -->
  <rect x="80" y="155" width="180" height="120" rx="8" fill="url(#grad-janela)"/>
  <circle cx="220" cy="200" r="14" fill="#E8C94A" opacity="0.8"/>
  <line x1="110" y1="275" x2="110" y2="240" stroke="#5a3a23" stroke-width="3"/>
  <path d="M110 240 Q 96 230 88 235 M 110 240 Q 124 230 132 235 M 110 240 Q 100 224 95 218 M 110 240 Q 120 224 125 218" stroke="#4A7C59" stroke-width="2.5" fill="none" stroke-linecap="round"/>
  <line x1="160" y1="275" x2="160" y2="248" stroke="#5a3a23" stroke-width="3"/>
  <path d="M160 248 Q 148 240 142 244 M 160 248 Q 172 240 178 244 M 160 248 Q 152 232 148 226 M 160 248 Q 168 232 172 226" stroke="#5A9A6E" stroke-width="2.5" fill="none" stroke-linecap="round"/>
  <line x1="170" y1="155" x2="170" y2="275" stroke="#a87545" stroke-width="3"/>
  <line x1="80" y1="215" x2="260" y2="215" stroke="#a87545" stroke-width="3"/>
  <rect x="78" y="153" width="184" height="124" rx="8" fill="none" stroke="#8b6238" stroke-width="3"/>

  <!-- Quadro na parede -->
  <g transform="translate(380,200)">
    <rect x="-62" y="-32" width="124" height="68" rx="4" fill="#fff" stroke="#8b6238" stroke-width="2"/>
    <text x="0" y="-10" text-anchor="middle" font-family="Inter,sans-serif" font-size="13" font-weight="700" fill="#4A7C59" letter-spacing="0.5">ALIMENTAR-SE</text>
    <text x="0" y="6" text-anchor="middle" font-family="Inter,sans-serif" font-size="13" font-weight="700" fill="#4A7C59" letter-spacing="0.5">É APRENDER</text>
    <line x1="-30" y1="14" x2="30" y2="14" stroke="#E8C94A" stroke-width="2"/>
    <text x="0" y="26" text-anchor="middle" font-family="Inter,sans-serif" font-size="11" fill="#7a6a4a" font-style="italic">BNCC · DCNEI</text>
  </g>

  <!-- Plantinha em vaso -->
  <g transform="translate(490,250)">
    <rect x="-12" y="-2" width="24" height="20" rx="3" fill="#8B5E3C"/>
    <rect x="-13" y="-4" width="26" height="4" rx="1.5" fill="#5a3a23"/>
    <path d="M0 -2 Q 2 -18 -3 -28" stroke="#4A7C59" stroke-width="2.5" fill="none"/>
    <ellipse cx="-6" cy="-18" rx="5" ry="2.5" fill="#4A7C59" transform="rotate(-30 -6 -18)"/>
    <ellipse cx="5" cy="-24" rx="6" ry="3" fill="#5A9A6E" transform="rotate(20 5 -24)"/>
    <ellipse cx="-4" cy="-30" rx="5" ry="2.5" fill="#4A7C59" transform="rotate(-15 -4 -30)"/>
  </g>

  <!-- Educadora -->
  <g transform="translate(300,310)">
    <!-- Pescoço -->
    <path d="M-7 -33 L 7 -33 L 8 -27 L -8 -27 Z" fill="#e8b890"/>
    <!-- Cabeça oval -->
    <ellipse cx="0" cy="-50" rx="17" ry="20" fill="#f5d4b0"/>
    <!-- Orelhas -->
    <ellipse cx="-17" cy="-50" rx="3" ry="5" fill="#e8b890"/>
    <ellipse cx="17" cy="-50" rx="3" ry="5" fill="#e8b890"/>
    <!-- Cabelo (coque preso atrás + franja) -->
    <path d="M-17 -56 Q -19 -72 -5 -75 Q 0 -78 5 -75 Q 19 -72 17 -56 L 16 -44 Q 12 -52 4 -54 Q -4 -54 -12 -52 Q -16 -50 -17 -44 Z" fill="#3a1f10"/>
    <circle cx="0" cy="-72" r="6" fill="#3a1f10"/>
    <!-- Brincos pequenos -->
    <circle cx="-17" cy="-46" r="1.5" fill="#D4A54A"/>
    <circle cx="17" cy="-46" r="1.5" fill="#D4A54A"/>
    <!-- Sobrancelhas -->
    <path d="M-9 -55 Q -7 -57 -3 -55" stroke="#3a1f10" stroke-width="1.5" fill="none" stroke-linecap="round"/>
    <path d="M3 -55 Q 7 -57 9 -55" stroke="#3a1f10" stroke-width="1.5" fill="none" stroke-linecap="round"/>
    <!-- Olhos com íris -->
    <ellipse cx="-6" cy="-50" rx="2.2" ry="2.6" fill="#fff"/>
    <ellipse cx="6" cy="-50" rx="2.2" ry="2.6" fill="#fff"/>
    <circle cx="-6" cy="-49" r="1.6" fill="#5a3a23"/>
    <circle cx="6" cy="-49" r="1.6" fill="#5a3a23"/>
    <circle cx="-5.5" cy="-49.5" r="0.6" fill="#fff"/>
    <circle cx="6.5" cy="-49.5" r="0.6" fill="#fff"/>
    <!-- Nariz -->
    <path d="M-1 -47 Q 0 -44 1 -47" stroke="#c89875" stroke-width="1" fill="none"/>
    <!-- Bochechas -->
    <circle cx="-10" cy="-44" r="3" fill="#E87461" opacity="0.25"/>
    <circle cx="10" cy="-44" r="3" fill="#E87461" opacity="0.25"/>
    <!-- Sorriso -->
    <path d="M-5 -41 Q 0 -36 5 -41" stroke="#7a2a20" stroke-width="1.5" fill="none" stroke-linecap="round"/>
    <!-- Avental/Blusa com gola -->
    <path d="M-22 -28 L 22 -28 L 28 32 L -28 32 Z" fill="#E87461"/>
    <path d="M-22 -28 L -8 -25 L 0 -22 L 8 -25 L 22 -28 L 16 -22 L 0 -18 L -16 -22 Z" fill="#c83232"/>
    <!-- Bolso -->
    <rect x="-12" y="2" width="24" height="16" rx="3" fill="#c83232"/>
    <line x1="-12" y1="9" x2="12" y2="9" stroke="#7a2a20" stroke-width="0.8"/>
    <!-- Crachá -->
    <rect x="-20" y="-18" width="14" height="10" rx="1.5" fill="#fff"/>
    <circle cx="-16" cy="-15" r="2" fill="#7CB98A"/>
    <line x1="-11" y1="-15" x2="-7" y2="-15" stroke="#7a2a20" stroke-width="0.7"/>
    <line x1="-11" y1="-12" x2="-7" y2="-12" stroke="#7a2a20" stroke-width="0.7"/>
    <!-- Cordão do crachá -->
    <path d="M-13 -25 Q -16 -22 -16 -19" stroke="#3a1f10" stroke-width="1" fill="none"/>
    <!-- Braços ao lado -->
    <path d="M-22 -22 Q -28 -10 -30 5" stroke="#E87461" stroke-width="9" fill="none" stroke-linecap="round"/>
    <path d="M22 -22 Q 28 -10 30 5" stroke="#E87461" stroke-width="9" fill="none" stroke-linecap="round"/>
    <!-- Mãos -->
    <circle cx="-30" cy="8" r="5" fill="#f5d4b0"/>
    <circle cx="30" cy="8" r="5" fill="#f5d4b0"/>
  </g>

  <!-- MESA -->
  <g transform="translate(300,400)">
    <path d="M-220 -10 L 220 -10 L 240 25 L -240 25 Z" fill="url(#grad-mesa)"/>
    <path d="M-220 -10 L 220 -10 L 230 -2 L -230 -2 Z" fill="#c8905d"/>
    <rect x="-225" y="20" width="8" height="20" fill="#6e4828"/>
    <rect x="217" y="20" width="8" height="20" fill="#6e4828"/>
  </g>

  <!-- PRATOS -->
  <g transform="translate(160,390)">
    <ellipse cx="0" cy="0" rx="38" ry="11" fill="#fefdf6" stroke="#d4c8a8" stroke-width="1.5"/>
    <ellipse cx="0" cy="-1" rx="32" ry="8" fill="#f8f1de"/>
    <ellipse cx="-10" cy="-1" rx="10" ry="5" fill="#fdf6e8"/>
    <ellipse cx="8" cy="-1" rx="9" ry="4" fill="#5a3a23"/>
    <ellipse cx="0" cy="2" rx="6" ry="3" fill="#4A7C59"/>
    <ellipse cx="-15" cy="-4" rx="6" ry="1.2" fill="#fff" opacity="0.6"/>
  </g>

  <g transform="translate(300,395)">
    <ellipse cx="0" cy="0" rx="40" ry="12" fill="#fefdf6" stroke="#d4c8a8" stroke-width="1.5"/>
    <ellipse cx="0" cy="-1" rx="34" ry="9" fill="#f8f1de"/>
    <ellipse cx="-10" cy="-1" rx="10" ry="5" fill="#fdf6e8"/>
    <ellipse cx="8" cy="-1" rx="9" ry="4" fill="#5a3a23"/>
    <ellipse cx="0" cy="3" rx="7" ry="3" fill="#E87461"/>
    <ellipse cx="-15" cy="-4" rx="6" ry="1.2" fill="#fff" opacity="0.6"/>
  </g>

  <g transform="translate(440,390)">
    <ellipse cx="0" cy="0" rx="38" ry="11" fill="#fefdf6" stroke="#d4c8a8" stroke-width="1.5"/>
    <ellipse cx="0" cy="-1" rx="32" ry="8" fill="#f8f1de"/>
    <ellipse cx="-10" cy="-1" rx="10" ry="5" fill="#fdf6e8"/>
    <ellipse cx="8" cy="-1" rx="9" ry="4" fill="#5a3a23"/>
    <ellipse cx="0" cy="2" rx="6" ry="3" fill="#D4A54A"/>
    <ellipse cx="-15" cy="-4" rx="6" ry="1.2" fill="#fff" opacity="0.6"/>
  </g>

  <!-- CRIANÇA 1 (esquerda — tom de pele escuro, cabelo black power) -->
  <g transform="translate(160,425)">
    <!-- Pescoço -->
    <path d="M-5 14 L 5 14 L 6 20 L -6 20 Z" fill="#7a4a2a"/>
    <!-- Cabeça oval -->
    <ellipse cx="0" cy="0" rx="15" ry="18" fill="#8b5e3c"/>
    <!-- Orelhas -->
    <ellipse cx="-15" cy="0" rx="3" ry="4" fill="#7a4a2a"/>
    <ellipse cx="15" cy="0" rx="3" ry="4" fill="#7a4a2a"/>
    <!-- Cabelo black power -->
    <ellipse cx="0" cy="-12" rx="20" ry="14" fill="#2a1408"/>
    <circle cx="-15" cy="-12" r="6" fill="#2a1408"/>
    <circle cx="15" cy="-12" r="6" fill="#2a1408"/>
    <circle cx="-10" cy="-22" r="5" fill="#2a1408"/>
    <circle cx="0" cy="-25" r="5" fill="#2a1408"/>
    <circle cx="10" cy="-22" r="5" fill="#2a1408"/>
    <!-- Sobrancelhas -->
    <path d="M-9 -5 Q -7 -7 -3 -5" stroke="#2a1408" stroke-width="1.5" fill="none" stroke-linecap="round"/>
    <path d="M3 -5 Q 7 -7 9 -5" stroke="#2a1408" stroke-width="1.5" fill="none" stroke-linecap="round"/>
    <!-- Olhos -->
    <ellipse cx="-5" cy="0" rx="2.2" ry="2.5" fill="#fff"/>
    <ellipse cx="5" cy="0" rx="2.2" ry="2.5" fill="#fff"/>
    <circle cx="-5" cy="1" r="1.5" fill="#3a1f10"/>
    <circle cx="5" cy="1" r="1.5" fill="#3a1f10"/>
    <circle cx="-4.5" cy="0.5" r="0.6" fill="#fff"/>
    <circle cx="5.5" cy="0.5" r="0.6" fill="#fff"/>
    <!-- Nariz -->
    <path d="M-1 3 Q 0 6 1 3" stroke="#5a3a23" stroke-width="1" fill="none"/>
    <!-- Bochechas -->
    <circle cx="-10" cy="6" r="3" fill="#E87461" opacity="0.3"/>
    <circle cx="10" cy="6" r="3" fill="#E87461" opacity="0.3"/>
    <!-- Sorriso aberto (mostra dente) -->
    <path d="M-5 8 Q 0 14 5 8" fill="#7a2a20" stroke="#7a2a20" stroke-width="1.5" stroke-linecap="round"/>
    <rect x="-2" y="8.5" width="4" height="3" fill="#fff"/>
    <!-- Camiseta com listras -->
    <path d="M-20 20 L 20 20 L 24 42 L -24 42 Z" fill="#4A7C59"/>
    <line x1="-22" y1="28" x2="22" y2="28" stroke="#7CB98A" stroke-width="3"/>
    <line x1="-22" y1="36" x2="22" y2="36" stroke="#7CB98A" stroke-width="3"/>
    <!-- Gola -->
    <path d="M-7 20 L 7 20 L 4 24 L -4 24 Z" fill="#3D6849"/>
    <!-- Bracinho com colher -->
    <path d="M16 25 Q 22 30 24 36" stroke="#8b5e3c" stroke-width="6" fill="none" stroke-linecap="round"/>
    <circle cx="24" cy="36" r="3.5" fill="#8b5e3c"/>
    <!-- Colher -->
    <line x1="24" y1="36" x2="32" y2="42" stroke="#aaa" stroke-width="2" stroke-linecap="round"/>
    <ellipse cx="33" cy="43" rx="3" ry="2" fill="#aaa"/>
  </g>

  <!-- CRIANÇA 2 (centro — tom médio, cabelo cacheado com lacinhos) -->
  <g transform="translate(300,430)">
    <path d="M-5 14 L 5 14 L 6 20 L -6 20 Z" fill="#d8a878"/>
    <ellipse cx="0" cy="0" rx="15" ry="18" fill="#fdc998"/>
    <ellipse cx="-15" cy="0" rx="3" ry="4" fill="#d8a878"/>
    <ellipse cx="15" cy="0" rx="3" ry="4" fill="#d8a878"/>
    <!-- Cabelo cacheado com volume -->
    <ellipse cx="0" cy="-10" rx="18" ry="13" fill="#6e4828"/>
    <circle cx="-14" cy="-15" r="5" fill="#6e4828"/>
    <circle cx="14" cy="-15" r="5" fill="#6e4828"/>
    <circle cx="-8" cy="-22" r="4" fill="#6e4828"/>
    <circle cx="8" cy="-22" r="4" fill="#6e4828"/>
    <!-- Lacinho/maria-chiquinha esquerda -->
    <circle cx="-18" cy="-15" r="2.5" fill="#E87461"/>
    <path d="M-22 -17 L -16 -13 L -22 -10 Z" fill="#E87461"/>
    <path d="M-14 -17 L -20 -13 L -14 -10 Z" fill="#c83232"/>
    <!-- Lacinho direita -->
    <circle cx="18" cy="-15" r="2.5" fill="#E87461"/>
    <path d="M22 -17 L 16 -13 L 22 -10 Z" fill="#E87461"/>
    <path d="M14 -17 L 20 -13 L 14 -10 Z" fill="#c83232"/>
    <!-- Sobrancelhas -->
    <path d="M-9 -5 Q -7 -7 -3 -5" stroke="#6e4828" stroke-width="1.5" fill="none" stroke-linecap="round"/>
    <path d="M3 -5 Q 7 -7 9 -5" stroke="#6e4828" stroke-width="1.5" fill="none" stroke-linecap="round"/>
    <!-- Olhos -->
    <ellipse cx="-5" cy="0" rx="2.2" ry="2.5" fill="#fff"/>
    <ellipse cx="5" cy="0" rx="2.2" ry="2.5" fill="#fff"/>
    <circle cx="-5" cy="1" r="1.5" fill="#3a1f10"/>
    <circle cx="5" cy="1" r="1.5" fill="#3a1f10"/>
    <circle cx="-4.5" cy="0.5" r="0.6" fill="#fff"/>
    <circle cx="5.5" cy="0.5" r="0.6" fill="#fff"/>
    <!-- Nariz -->
    <path d="M-1 3 Q 0 6 1 3" stroke="#c89875" stroke-width="1" fill="none"/>
    <!-- Bochechas -->
    <circle cx="-10" cy="6" r="3" fill="#E87461" opacity="0.35"/>
    <circle cx="10" cy="6" r="3" fill="#E87461" opacity="0.35"/>
    <!-- Sorriso -->
    <path d="M-5 8 Q 0 13 5 8" stroke="#7a2a20" stroke-width="1.8" fill="none" stroke-linecap="round"/>
    <!-- Vestido com bolinhas -->
    <path d="M-22 20 L 22 20 L 26 42 L -26 42 Z" fill="#D4A54A"/>
    <circle cx="-12" cy="28" r="2" fill="#fff" opacity="0.7"/>
    <circle cx="0" cy="32" r="2" fill="#fff" opacity="0.7"/>
    <circle cx="12" cy="28" r="2" fill="#fff" opacity="0.7"/>
    <circle cx="-6" cy="38" r="2" fill="#fff" opacity="0.7"/>
    <circle cx="6" cy="38" r="2" fill="#fff" opacity="0.7"/>
    <!-- Gola -->
    <path d="M-7 20 L 7 20 L 4 24 L -4 24 Z" fill="#a87545"/>
    <!-- Bracinhos -->
    <path d="M-16 24 Q -22 30 -20 36" stroke="#fdc998" stroke-width="6" fill="none" stroke-linecap="round"/>
    <path d="M16 24 Q 22 30 20 36" stroke="#fdc998" stroke-width="6" fill="none" stroke-linecap="round"/>
    <circle cx="-20" cy="38" r="3.5" fill="#fdc998"/>
    <circle cx="20" cy="38" r="3.5" fill="#fdc998"/>
  </g>

  <!-- CRIANÇA 3 (direita — tom claro, cabelo liso curto) -->
  <g transform="translate(440,425)">
    <path d="M-5 14 L 5 14 L 6 20 L -6 20 Z" fill="#e8b890"/>
    <ellipse cx="0" cy="0" rx="15" ry="18" fill="#f5d4b0"/>
    <ellipse cx="-15" cy="0" rx="3" ry="4" fill="#e8b890"/>
    <ellipse cx="15" cy="0" rx="3" ry="4" fill="#e8b890"/>
    <!-- Cabelo liso curto -->
    <path d="M-15 -10 Q -16 -22 -2 -23 Q 0 -25 2 -23 Q 16 -22 15 -10 Q 14 -16 8 -17 L 4 -10 Q 0 -16 -4 -10 L -8 -17 Q -14 -16 -15 -10 Z" fill="#a87545"/>
    <!-- Franja lateral -->
    <path d="M-12 -10 Q -10 -3 -3 -5 L -1 -10 Q -8 -12 -12 -10 Z" fill="#8b6238"/>
    <!-- Sobrancelhas -->
    <path d="M-9 -5 Q -7 -7 -3 -5" stroke="#8b6238" stroke-width="1.5" fill="none" stroke-linecap="round"/>
    <path d="M3 -5 Q 7 -7 9 -5" stroke="#8b6238" stroke-width="1.5" fill="none" stroke-linecap="round"/>
    <!-- Olhos -->
    <ellipse cx="-5" cy="0" rx="2.2" ry="2.5" fill="#fff"/>
    <ellipse cx="5" cy="0" rx="2.2" ry="2.5" fill="#fff"/>
    <circle cx="-5" cy="1" r="1.5" fill="#5b9bd5"/>
    <circle cx="5" cy="1" r="1.5" fill="#5b9bd5"/>
    <circle cx="-4.5" cy="0.5" r="0.6" fill="#fff"/>
    <circle cx="5.5" cy="0.5" r="0.6" fill="#fff"/>
    <!-- Nariz -->
    <path d="M-1 3 Q 0 6 1 3" stroke="#c89875" stroke-width="1" fill="none"/>
    <!-- Bochechas -->
    <circle cx="-10" cy="6" r="3" fill="#E87461" opacity="0.3"/>
    <circle cx="10" cy="6" r="3" fill="#E87461" opacity="0.3"/>
    <!-- Sorriso -->
    <path d="M-5 8 Q 0 12 5 8" stroke="#7a2a20" stroke-width="1.6" fill="none" stroke-linecap="round"/>
    <!-- Camiseta azul com listras -->
    <path d="M-20 20 L 20 20 L 24 42 L -24 42 Z" fill="#5b9bd5"/>
    <line x1="-22" y1="32" x2="22" y2="32" stroke="#fff" stroke-width="2.5"/>
    <!-- Gola -->
    <path d="M-7 20 L 7 20 L 4 24 L -4 24 Z" fill="#2d6a8a"/>
    <!-- Bracinho com garfo -->
    <path d="M-16 25 Q -22 30 -24 36" stroke="#f5d4b0" stroke-width="6" fill="none" stroke-linecap="round"/>
    <circle cx="-24" cy="36" r="3.5" fill="#f5d4b0"/>
    <!-- Garfo -->
    <line x1="-24" y1="36" x2="-32" y2="42" stroke="#aaa" stroke-width="2" stroke-linecap="round"/>
    <line x1="-32" y1="40" x2="-34" y2="44" stroke="#aaa" stroke-width="1.5" stroke-linecap="round"/>
    <line x1="-30" y1="41" x2="-31" y2="45" stroke="#aaa" stroke-width="1.5" stroke-linecap="round"/>
    <line x1="-33" y1="42" x2="-36" y2="46" stroke="#aaa" stroke-width="1.5" stroke-linecap="round"/>
  </g>

  <!-- ============ 3 PRINCÍPIOS ============ -->
  <g transform="translate(40,490)">
    <!-- DIREITO -->
    <g transform="translate(0,0)">
      <rect x="0" y="0" width="170" height="160" rx="14" fill="#fdebe7" stroke="#F5A08F" stroke-width="2"/>
      <rect x="0" y="0" width="170" height="6" rx="3" fill="#E87461"/>
      <g transform="translate(85,55)">
        <path d="M0 -22 L 7 -7 L 22 -5 L 11 5 L 14 21 L 0 13 L -14 21 L -11 5 L -22 -5 L -7 -7 Z" fill="#E87461"/>
      </g>
      <text x="85" y="110" text-anchor="middle" font-family="Inter,sans-serif" font-size="22" font-weight="700" fill="#7a2a20">DIREITO</text>
      <text x="85" y="128" text-anchor="middle" font-family="Inter,sans-serif" font-size="13" fill="#a04030">Garantido pela</text>
      <text x="85" y="142" text-anchor="middle" font-family="Inter,sans-serif" font-size="13" fill="#a04030">Constituição (1988)</text>
    </g>

    <!-- NUTRIR -->
    <g transform="translate(175,0)">
      <rect x="0" y="0" width="170" height="160" rx="14" fill="#e8f5ed" stroke="#7CB98A" stroke-width="2"/>
      <rect x="0" y="0" width="170" height="6" rx="3" fill="#4A7C59"/>
      <g transform="translate(85,55)">
        <ellipse cx="0" cy="8" rx="26" ry="6" fill="#4A7C59"/>
        <path d="M-22 8 Q -22 -18 0 -18 Q 22 -18 22 8 Z" fill="#5A9A6E"/>
        <circle cx="0" cy="-18" r="3" fill="#4A7C59"/>
        <path d="M-8 -24 Q -8 -32 -4 -34 Q -4 -38 0 -38" stroke="#7CB98A" stroke-width="2" fill="none" stroke-linecap="round" opacity="0.8"/>
        <path d="M0 -24 Q 0 -32 4 -34 Q 4 -38 8 -38" stroke="#7CB98A" stroke-width="2" fill="none" stroke-linecap="round" opacity="0.8"/>
      </g>
      <text x="85" y="110" text-anchor="middle" font-family="Inter,sans-serif" font-size="22" font-weight="700" fill="#2d5a3a">NUTRIR</text>
      <text x="85" y="128" text-anchor="middle" font-family="Inter,sans-serif" font-size="13" fill="#4A7C59">Comida de verdade</text>
      <text x="85" y="142" text-anchor="middle" font-family="Inter,sans-serif" font-size="13" fill="#4A7C59">todos os dias</text>
    </g>

    <!-- ENSINAR -->
    <g transform="translate(350,0)">
      <rect x="0" y="0" width="170" height="160" rx="14" fill="#fdf6e0" stroke="#E8C94A" stroke-width="2"/>
      <rect x="0" y="0" width="170" height="6" rx="3" fill="#D4A54A"/>
      <g transform="translate(85,55)">
        <path d="M-22 8 L 0 0 L 22 8 L 22 -10 L 0 -18 L -22 -10 Z" fill="#fdf6c0"/>
        <path d="M-22 8 L 0 0 L 0 -18 L -22 -10 Z" fill="#fff8e0"/>
        <line x1="-18" y1="-8" x2="-4" y2="-3" stroke="#a78930" stroke-width="0.8"/>
        <line x1="-18" y1="-4" x2="-4" y2="1" stroke="#a78930" stroke-width="0.8"/>
        <line x1="18" y1="-8" x2="4" y2="-3" stroke="#a78930" stroke-width="0.8"/>
        <line x1="18" y1="-4" x2="4" y2="1" stroke="#a78930" stroke-width="0.8"/>
        <line x1="-14" y1="-22" x2="14" y2="-22" stroke="#D4A54A" stroke-width="5" stroke-linecap="round"/>
        <path d="M14 -24 L 18 -22 L 14 -20 Z" fill="#3a3a3a"/>
      </g>
      <text x="85" y="110" text-anchor="middle" font-family="Inter,sans-serif" font-size="22" font-weight="700" fill="#8a6a20">ENSINAR</text>
      <text x="85" y="128" text-anchor="middle" font-family="Inter,sans-serif" font-size="13" fill="#a78930">Refeição é ato</text>
      <text x="85" y="142" text-anchor="middle" font-family="Inter,sans-serif" font-size="13" fill="#a78930">pedagógico</text>
    </g>
  </g>

  <!-- RODAPÉ -->
  <text x="300" y="690" text-anchor="middle" font-family="Inter,sans-serif" font-size="18" font-weight="600" fill="#3a3a3a" font-style="italic">"Nutrir e ensinar, juntos."</text>
  <text x="300" y="720" text-anchor="middle" font-family="Inter,sans-serif" font-size="13" font-weight="600" letter-spacing="2.5" fill="#7a6a4a">PAE-DF · EDUCAÇÃO INFANTIL · SEEDF</text>
</svg>
