<svg xmlns="http://www.w3.org/2000/svg" viewBox="0 0 800 520">
  <defs>
    <linearGradient id="bg-pre" x1="0" x2="0" y1="0" y2="1">
      <stop offset="0" stop-color="#fdf6e0"/>
      <stop offset="1" stop-color="#fdf6e8"/>
    </linearGradient>
    <linearGradient id="ceu-pre" x1="0" x2="0" y1="0" y2="1">
      <stop offset="0" stop-color="#cce8f2"/>
      <stop offset="1" stop-color="#fdf6e8"/>
    </linearGradient>
  </defs>

  <rect width="800" height="520" fill="url(#bg-pre)"/>

  <!-- Faixa do céu atrás -->
  <rect x="0" y="100" width="800" height="220" fill="url(#ceu-pre)" opacity="0.5"/>

  <!-- HEADER -->
  <text x="400" y="55" text-anchor="middle" font-family="Inter,sans-serif" font-size="16" font-weight="700" letter-spacing="3.5" fill="#a78930">FASE 03 · 4 A 5A 11M</text>
  <text x="400" y="98" text-anchor="middle" font-family="Inter,sans-serif" font-size="36" font-weight="700" fill="#3a3a3a">Pré-escola · <tspan font-style="italic" fill="#D4A54A">investigação e horta</tspan></text>

  <!-- SOL -->
  <g transform="translate(150,170)">
    <circle cx="0" cy="0" r="32" fill="#E8C94A"/>
    <circle cx="0" cy="0" r="24" fill="#fff0a0" opacity="0.7"/>
    <g stroke="#D4A54A" stroke-width="3" stroke-linecap="round">
      <line x1="-48" y1="0" x2="-40" y2="0"/>
      <line x1="40" y1="0" x2="48" y2="0"/>
      <line x1="0" y1="-48" x2="0" y2="-40"/>
      <line x1="0" y1="40" x2="0" y2="48"/>
      <line x1="-32" y1="-32" x2="-28" y2="-28"/>
      <line x1="32" y1="-32" x2="28" y2="-28"/>
      <line x1="-32" y1="32" x2="-28" y2="28"/>
      <line x1="32" y1="32" x2="28" y2="28"/>
    </g>
  </g>

  <!-- Nuvenzinhas -->
  <g fill="#fff" opacity="0.7">
    <ellipse cx="620" cy="150" rx="32" ry="12"/>
    <ellipse cx="640" cy="140" rx="20" ry="10"/>
    <ellipse cx="650" cy="155" rx="25" ry="10"/>
  </g>

  <!-- Chão -->
  <rect x="0" y="430" width="800" height="90" fill="#a87545"/>
  <rect x="0" y="430" width="800" height="15" fill="#c8905d"/>

  <!-- CANTEIRO/HORTA (lado direito) -->
  <g transform="translate(530,400)">
    <!-- Cerca/borda -->
    <rect x="-110" y="0" width="220" height="40" fill="#8b6238"/>
    <rect x="-110" y="0" width="220" height="6" fill="#5a3a23"/>
    <!-- Solo do canteiro -->
    <rect x="-100" y="-15" width="200" height="20" fill="#5a3a23"/>
    <rect x="-100" y="-15" width="200" height="6" fill="#3a1f10"/>
    <!-- Tomateiro -->
    <g transform="translate(-80,-15)">
      <line x1="0" y1="0" x2="0" y2="-50" stroke="#4A7C59" stroke-width="3"/>
      <ellipse cx="-7" cy="-15" rx="7" ry="4" fill="#4A7C59" transform="rotate(-30 -7 -15)"/>
      <ellipse cx="7" cy="-25" rx="8" ry="5" fill="#5A9A6E" transform="rotate(30 7 -25)"/>
      <ellipse cx="-5" cy="-35" rx="7" ry="4" fill="#4A7C59" transform="rotate(-15 -5 -35)"/>
      <ellipse cx="6" cy="-45" rx="7" ry="3.5" fill="#5A9A6E" transform="rotate(20 6 -45)"/>
      <circle cx="-10" cy="-22" r="5" fill="#E87461"/>
      <circle cx="8" cy="-18" r="4" fill="#c83232"/>
      <circle cx="-3" cy="-40" r="4" fill="#E87461"/>
    </g>
    <!-- Cenoura no solo (vista) -->
    <g transform="translate(-30,-15)">
      <path d="M-6 -8 L 6 -8 L 9 8 L -9 8 Z" fill="#f57c00"/>
      <path d="M-3 -8 Q -3 -12 -6 -14" stroke="#4A7C59" stroke-width="2" fill="none"/>
      <path d="M3 -8 Q 3 -13 6 -15" stroke="#4A7C59" stroke-width="2" fill="none"/>
      <path d="M0 -8 Q 0 -14 0 -17" stroke="#4A7C59" stroke-width="2" fill="none"/>
    </g>
    <!-- Pé de alface -->
    <g transform="translate(15,-15)">
      <line x1="0" y1="0" x2="0" y2="-10" stroke="#4A7C59" stroke-width="2"/>
      <ellipse cx="-8" cy="-12" rx="9" ry="5" fill="#5A9A6E"/>
      <ellipse cx="8" cy="-12" rx="9" ry="5" fill="#4A7C59"/>
      <ellipse cx="0" cy="-18" rx="11" ry="5" fill="#5A9A6E"/>
    </g>
    <!-- Abóbora -->
    <g transform="translate(60,-15)">
      <circle cx="0" cy="-2" r="11" fill="#f57c00"/>
      <line x1="-8" y1="-4" x2="8" y2="-4" stroke="#c25a00" stroke-width="0.8"/>
      <line x1="-9" y1="-1" x2="9" y2="-1" stroke="#c25a00" stroke-width="0.8"/>
      <line x1="-7" y1="3" x2="7" y2="3" stroke="#c25a00" stroke-width="0.8"/>
      <line x1="0" y1="-13" x2="0" y2="-16" stroke="#4A7C59" stroke-width="2"/>
      <ellipse cx="2" cy="-16" rx="4" ry="2" fill="#4A7C59" transform="rotate(30 2 -16)"/>
    </g>
  </g>

  <!-- CRIANÇA COM REGADOR -->
  <g transform="translate(290,360)">
    <!-- Pernas -->
    <rect x="-13" y="50" width="11" height="35" rx="3" fill="#4A7C59"/>
    <rect x="2" y="50" width="11" height="35" rx="3" fill="#4A7C59"/>
    <ellipse cx="-8" cy="87" rx="9" ry="4" fill="#3a1f10"/>
    <ellipse cx="8" cy="87" rx="9" ry="4" fill="#3a1f10"/>
    <!-- Corpo (camiseta verde) -->
    <path d="M-27 -5 L 27 -5 L 33 55 L -33 55 Z" fill="#7CB98A"/>
    <!-- Bolso -->
    <rect x="-10" y="20" width="20" height="14" rx="2" fill="#4A7C59"/>
    <!-- Bracinho direito segurando regador -->
    <path d="M27 5 Q 40 12 50 22" stroke="#7CB98A" stroke-width="11" fill="none" stroke-linecap="round"/>
    <circle cx="50" cy="22" r="5" fill="#fdc998"/>
    <!-- Bracinho esquerdo -->
    <path d="M-27 5 Q -35 15 -32 30" stroke="#7CB98A" stroke-width="9" fill="none" stroke-linecap="round"/>
    <circle cx="-32" cy="30" r="5" fill="#fdc998"/>
    <!-- Pescoço -->
    <path d="M-6 -12 L 6 -12 L 7 -6 L -7 -6 Z" fill="#d8a878"/>
    <!-- Cabeça -->
    <ellipse cx="0" cy="-38" rx="22" ry="24" fill="#fdc998"/>
    <ellipse cx="-22" cy="-38" rx="4" ry="6" fill="#d8a878"/>
    <ellipse cx="22" cy="-38" rx="4" ry="6" fill="#d8a878"/>
    <!-- Cabelo curto -->
    <path d="M-20 -55 Q -10 -65 0 -65 Q 10 -65 20 -55 L 20 -45 Q 15 -50 0 -52 Q -15 -50 -20 -45 Z" fill="#5a3a23"/>
    <!-- Chapéu de palha -->
    <ellipse cx="0" cy="-58" rx="32" ry="6" fill="#E8C94A"/>
    <ellipse cx="0" cy="-58" rx="30" ry="4" fill="#D4A54A"/>
    <path d="M-16 -58 Q -14 -75 0 -78 Q 14 -75 16 -58 Z" fill="#E8C94A"/>
    <rect x="-18" y="-62" width="36" height="3" fill="#E87461"/>
    <!-- Sobrancelhas -->
    <path d="M-10 -42 Q -7 -45 -3 -42" stroke="#5a3a23" stroke-width="1.5" fill="none" stroke-linecap="round"/>
    <path d="M3 -42 Q 7 -45 10 -42" stroke="#5a3a23" stroke-width="1.5" fill="none" stroke-linecap="round"/>
    <!-- Olhos -->
    <ellipse cx="-7" cy="-37" rx="3" ry="3.5" fill="#fff"/>
    <ellipse cx="7" cy="-37" rx="3" ry="3.5" fill="#fff"/>
    <circle cx="-7" cy="-36" r="2" fill="#3a1f10"/>
    <circle cx="7" cy="-36" r="2" fill="#3a1f10"/>
    <circle cx="-6" cy="-37" r="0.8" fill="#fff"/>
    <circle cx="8" cy="-37" r="0.8" fill="#fff"/>
    <!-- Bochechas -->
    <circle cx="-14" cy="-28" r="4" fill="#E87461" opacity="0.4"/>
    <circle cx="14" cy="-28" r="4" fill="#E87461" opacity="0.4"/>
    <!-- Sorriso -->
    <path d="M-5 -22 Q 0 -16 5 -22" stroke="#7a2a20" stroke-width="1.8" fill="none" stroke-linecap="round"/>
  </g>

  <!-- REGADOR -->
  <g transform="translate(360,390)">
    <rect x="-20" y="-15" width="35" height="28" rx="4" fill="#5b9bd5"/>
    <rect x="-22" y="-18" width="14" height="5" rx="1.5" fill="#5b9bd5"/>
    <!-- Bico -->
    <path d="M15 -8 L 35 -15 L 38 -10 L 18 -3 Z" fill="#5b9bd5"/>
    <!-- Furos do chuveirinho -->
    <rect x="34" y="-15" width="5" height="6" rx="1" fill="#2a4a6a"/>
    <!-- Gotinhas caindo -->
    <ellipse cx="38" cy="0" rx="1.5" ry="3" fill="#7ccae0"/>
    <ellipse cx="42" cy="6" rx="1.5" ry="3" fill="#7ccae0"/>
    <ellipse cx="36" cy="12" rx="1.5" ry="3" fill="#7ccae0"/>
    <ellipse cx="44" cy="14" rx="1.5" ry="3" fill="#7ccae0"/>
  </g>

  <!-- 3 BADGES -->
  <g transform="translate(140,455)">
    <rect width="160" height="42" rx="21" fill="#fff" stroke="#E8C94A" stroke-width="1.5"/>
    <g transform="translate(22,21)">
      <line x1="0" y1="7" x2="0" y2="-4" stroke="#4A7C59" stroke-width="2"/>
      <ellipse cx="-4" cy="-6" rx="5" ry="2.5" fill="#4A7C59" transform="rotate(-30 -4 -6)"/>
      <ellipse cx="4" cy="-8" rx="5" ry="2.5" fill="#5A9A6E" transform="rotate(30 4 -8)"/>
    </g>
    <text x="95" y="27" text-anchor="middle" font-family="Inter,sans-serif" font-size="16" font-weight="700" fill="#8a6a20" letter-spacing="0.5">HORTA</text>
  </g>
  <g transform="translate(320,455)">
    <rect width="160" height="42" rx="21" fill="#fff" stroke="#E8C94A" stroke-width="1.5"/>
    <g transform="translate(22,21)">
      <rect x="-7" y="-7" width="14" height="14" rx="2" fill="#fff" stroke="#8a6a20" stroke-width="1.2"/>
      <line x1="-4" y1="-3" x2="4" y2="-3" stroke="#8a6a20" stroke-width="1"/>
      <line x1="-4" y1="0" x2="4" y2="0" stroke="#8a6a20" stroke-width="1"/>
      <line x1="-4" y1="3" x2="4" y2="3" stroke="#8a6a20" stroke-width="1"/>
    </g>
    <text x="95" y="27" text-anchor="middle" font-family="Inter,sans-serif" font-size="16" font-weight="700" fill="#8a6a20" letter-spacing="0.5">PESQUISA</text>
  </g>
  <g transform="translate(500,455)">
    <rect width="160" height="42" rx="21" fill="#fff" stroke="#E8C94A" stroke-width="1.5"/>
    <g transform="translate(22,21)">
      <path d="M-6 6 Q -8 0 -8 -3 Q -8 -7 -4 -7 Q 0 -7 0 -3 Q 0 -7 4 -7 Q 8 -7 8 -3 Q 8 0 6 6 Z" fill="#E87461"/>
    </g>
    <text x="95" y="27" text-anchor="middle" font-family="Inter,sans-serif" font-size="16" font-weight="700" fill="#8a6a20" letter-spacing="0.5">CRÍTICA</text>
  </g>
</svg>
