<svg xmlns="http://www.w3.org/2000/svg" viewBox="0 0 800 520">
  <defs>
    <linearGradient id="bg-bebes" x1="0" x2="0" y1="0" y2="1">
      <stop offset="0" stop-color="#fdebe7"/>
      <stop offset="1" stop-color="#fdf6e8"/>
    </linearGradient>
  </defs>

  <rect width="800" height="520" fill="url(#bg-bebes)"/>

  <!-- HEADER -->
  <text x="400" y="50" text-anchor="middle" font-family="Inter,sans-serif" font-size="16" font-weight="700" letter-spacing="3.5" fill="#a04030">FASE 01 · 0 A 1A 6M</text>
  <text x="400" y="88" text-anchor="middle" font-family="Inter,sans-serif" font-size="42" font-weight="700" fill="#3a3a3a">Bebês · <tspan font-style="italic" fill="#E87461">sensorial e afetivo</tspan></text>

  <!-- Chão -->
  <ellipse cx="400" cy="470" rx="320" ry="20" fill="#8B5E3C" opacity="0.12"/>

  <!-- CADEIRINHA ALTA -->
  <g transform="translate(340,340)">
    <line x1="-40" y1="0" x2="-50" y2="125" stroke="#8B5E3C" stroke-width="5" stroke-linecap="round"/>
    <line x1="40" y1="0" x2="50" y2="125" stroke="#8B5E3C" stroke-width="5" stroke-linecap="round"/>
    <line x1="-30" y1="-30" x2="-38" y2="80" stroke="#8B5E3C" stroke-width="5" stroke-linecap="round"/>
    <line x1="30" y1="-30" x2="38" y2="80" stroke="#8B5E3C" stroke-width="5" stroke-linecap="round"/>
    <rect x="-45" y="-30" width="90" height="55" rx="10" fill="#D4A54A"/>
    <rect x="-45" y="-30" width="90" height="10" rx="5" fill="#a87545"/>
    <rect x="-40" y="-90" width="80" height="65" rx="12" fill="#E8C94A"/>
    <rect x="-32" y="-82" width="64" height="50" rx="6" fill="#D4A54A"/>
    <rect x="-65" y="20" width="130" height="14" rx="4" fill="#a87545"/>
    <rect x="-65" y="20" width="130" height="6" rx="3" fill="#c8905d"/>
  </g>

  <!-- BEBÊ -->
  <g transform="translate(340,290)">
    <path d="M-30 0 L 30 0 L 35 50 L -35 50 Z" fill="#F5A08F"/>
    <circle cx="0" cy="20" r="6" fill="#E87461"/>
    <path d="M30 8 Q 40 18 38 30" stroke="#F5A08F" stroke-width="9" fill="none" stroke-linecap="round"/>
    <circle cx="38" cy="30" r="5" fill="#fdc998"/>
    <line x1="38" y1="30" x2="48" y2="20" stroke="#aaa" stroke-width="3" stroke-linecap="round"/>
    <ellipse cx="50" cy="18" rx="5" ry="3" fill="#aaa"/>
    <path d="M-8 -6 L 8 -6 L 9 0 L -9 0 Z" fill="#e8b890"/>
    <ellipse cx="0" cy="-30" rx="28" ry="30" fill="#fdc998"/>
    <ellipse cx="-28" cy="-30" rx="5" ry="7" fill="#e8b890"/>
    <ellipse cx="28" cy="-30" rx="5" ry="7" fill="#e8b890"/>
    <ellipse cx="0" cy="-55" rx="22" ry="8" fill="#6e4828"/>
    <circle cx="-12" cy="-58" r="6" fill="#6e4828"/>
    <circle cx="12" cy="-58" r="6" fill="#6e4828"/>
    <circle cx="0" cy="-62" r="6" fill="#6e4828"/>
    <path d="M-12 -32 Q -8 -36 -4 -32" stroke="#3a1f10" stroke-width="2.5" fill="none" stroke-linecap="round"/>
    <path d="M4 -32 Q 8 -36 12 -32" stroke="#3a1f10" stroke-width="2.5" fill="none" stroke-linecap="round"/>
    <circle cx="-18" cy="-22" r="6" fill="#E87461" opacity="0.4"/>
    <circle cx="18" cy="-22" r="6" fill="#E87461" opacity="0.4"/>
    <path d="M-8 -18 Q 0 -10 8 -18" stroke="#7a2a20" stroke-width="2.5" fill="#7a2a20" stroke-linecap="round"/>
    <path d="M-15 -7 Q -18 4 -12 8 L 12 8 Q 18 4 15 -7" fill="#fff" stroke="#E87461" stroke-width="1.5"/>
    <circle cx="0" cy="3" r="3" fill="#E87461"/>
  </g>

  <!-- BANDEJA SENSORIAL -->
  <g transform="translate(340,365)">
    <g transform="translate(-40,0) rotate(20)">
      <path d="M-10 0 Q -10 -16 0 -22 Q 8 -20 12 -12 Q 8 4 -10 0 Z" fill="#D4A54A"/>
      <path d="M-8 -2 Q -8 -14 -1 -19 Q 5 -17 8 -10 Q 4 1 -8 -2 Z" fill="#E8C94A"/>
    </g>
    <g transform="translate(-10,3)">
      <ellipse cx="0" cy="0" rx="14" ry="9" fill="#4A7C59"/>
      <ellipse cx="0" cy="0" rx="11" ry="6" fill="#a8c878"/>
      <circle cx="0" cy="0" r="4" fill="#5a3a23"/>
    </g>
    <g transform="translate(25,0)">
      <rect x="-6" y="-5" width="6" height="6" rx="1.5" fill="#f57c00"/>
      <rect x="2" y="-5" width="6" height="6" rx="1.5" fill="#FFA040"/>
      <rect x="-2" y="3" width="6" height="6" rx="1.5" fill="#f57c00"/>
    </g>
  </g>

  <!-- ADULTO (mão com colher) -->
  <g transform="translate(580,330)">
    <path d="M0 0 Q -30 -10 -60 -5" stroke="#f5d4b0" stroke-width="22" fill="none" stroke-linecap="round"/>
    <path d="M-5 -8 L 15 5 L 5 15 L -15 0 Z" fill="#5b9bd5"/>
    <circle cx="-60" cy="-5" r="14" fill="#f5d4b0"/>
    <line x1="-60" y1="-5" x2="-90" y2="-12" stroke="#aaa" stroke-width="4" stroke-linecap="round"/>
    <ellipse cx="-95" cy="-13" rx="9" ry="5" fill="#aaa"/>
    <ellipse cx="-95" cy="-13" rx="7" ry="3.5" fill="#fdf0d9"/>
    <path d="M-95 -20 Q -97 -26 -93 -28 Q -93 -32 -90 -34" stroke="#aaa" stroke-width="2" fill="none" stroke-linecap="round" opacity="0.7"/>
    <path d="M-85 -20 Q -83 -26 -81 -28" stroke="#aaa" stroke-width="2" fill="none" stroke-linecap="round" opacity="0.7"/>
  </g>

  <!-- NOTAS MUSICAIS -->
  <g fill="#E87461" opacity="0.6">
    <text x="180" y="180" font-family="serif" font-size="50" font-weight="bold">♪</text>
    <text x="225" y="215" font-family="serif" font-size="42" font-weight="bold">♫</text>
    <text x="660" y="170" font-family="serif" font-size="46" font-weight="bold">♪</text>
    <text x="630" y="220" font-family="serif" font-size="36" font-weight="bold">♬</text>
  </g>

  <!-- 3 BADGES -->
  <g transform="translate(140,455)">
    <rect width="160" height="32" rx="16" fill="#fff" stroke="#F5A08F" stroke-width="1.5"/>
    <circle cx="22" cy="16" r="9" fill="#E87461"/>
    <path d="M16 14 Q 18 18 22 18 Q 26 18 28 14" stroke="#fff" stroke-width="2" fill="none" stroke-linecap="round"/>
    <text x="95" y="21" text-anchor="middle" font-family="Inter,sans-serif" font-size="16" font-weight="700" fill="#7a2a20" letter-spacing="0.5">SENSORIAL</text>
  </g>
  <g transform="translate(320,455)">
    <rect width="160" height="32" rx="16" fill="#fff" stroke="#F5A08F" stroke-width="1.5"/>
    <g transform="translate(22,16)">
      <path d="M0 6 Q -8 0 -8 -4 Q -8 -8 -4 -8 Q 0 -8 0 -4 Q 0 -8 4 -8 Q 8 -8 8 -4 Q 8 0 0 6 Z" fill="#E87461"/>
    </g>
    <text x="95" y="21" text-anchor="middle" font-family="Inter,sans-serif" font-size="16" font-weight="700" fill="#7a2a20" letter-spacing="0.5">VÍNCULO</text>
  </g>
  <g transform="translate(500,455)">
    <rect width="160" height="32" rx="16" fill="#fff" stroke="#F5A08F" stroke-width="1.5"/>
    <text x="22" y="23" text-anchor="middle" font-family="serif" font-size="30" font-weight="bold" fill="#E87461">♪</text>
    <text x="95" y="21" text-anchor="middle" font-family="Inter,sans-serif" font-size="16" font-weight="700" fill="#7a2a20" letter-spacing="0.5">CANÇÃO</text>
  </g>
</svg>
