<svg xmlns="http://www.w3.org/2000/svg" viewBox="0 0 1200 800" preserveAspectRatio="xMidYMid slice">
  <defs>
    <linearGradient id="sky" x1="0" x2="0" y1="0" y2="1">
      <stop offset="0" stop-color="#87CEEB"/>
      <stop offset="0.4" stop-color="#fde7c4"/>
      <stop offset="0.8" stop-color="#f4b87a"/>
      <stop offset="1" stop-color="#c97245"/>
    </linearGradient>
    <radialGradient id="sun" cx="75%" cy="20%" r="25%">
      <stop offset="0" stop-color="#f9d87a"/>
      <stop offset="0.6" stop-color="#eca85a" stop-opacity="0.4"/>
      <stop offset="1" stop-color="#d97a3d" stop-opacity="0"/>
    </radialGradient>
    <linearGradient id="grass" x1="0" x2="0" y1="0" y2="1">
      <stop offset="0" stop-color="#5a9a4a"/>
      <stop offset="1" stop-color="#3d7a2e"/>
    </linearGradient>
  </defs>
  <rect width="1200" height="800" fill="url(#sky)"/>
  <rect width="1200" height="800" fill="url(#sun)"/>
  <!-- clouds -->
  <g fill="white" opacity="0.6">
    <ellipse cx="200" cy="100" rx="80" ry="30"/>
    <ellipse cx="250" cy="90" rx="60" ry="25"/>
    <ellipse cx="700" cy="130" rx="90" ry="28"/>
    <ellipse cx="760" cy="120" rx="50" ry="22"/>
  </g>
  <!-- butterflies -->
  <g transform="translate(400 200)" fill="#E87461" opacity="0.7">
    <ellipse cx="-8" cy="0" rx="8" ry="12" transform="rotate(-20)"/>
    <ellipse cx="8" cy="0" rx="8" ry="12" transform="rotate(20)"/>
    <rect x="-1" y="-4" width="2" height="14" rx="1" fill="#5a2f1c"/>
  </g>
  <g transform="translate(850 180)" fill="#D4A54A" opacity="0.6">
    <ellipse cx="-6" cy="0" rx="6" ry="10" transform="rotate(-15)"/>
    <ellipse cx="6" cy="0" rx="6" ry="10" transform="rotate(15)"/>
    <rect x="-1" y="-3" width="2" height="12" rx="1" fill="#5a2f1c"/>
  </g>
  <!-- cerrado hills -->
  <path d="M0 520 C200 480 400 510 600 500 C800 490 1000 520 1200 510 L1200 800 L0 800Z" fill="#8a6a3a" opacity="0.3"/>
  <path d="M0 560 C200 530 380 550 560 555 C720 565 900 540 1080 560 L1200 565 L1200 800 L0 800Z" fill="#6d8a44"/>
  <!-- ESCOLA (fundo, lateral direita das colinas) -->
  <g transform="translate(700 555)">
    <!-- Corpo -->
    <rect x="-50" y="-55" width="100" height="55" fill="#fefdf6" stroke="#a87545" stroke-width="2"/>
    <!-- Telhado -->
    <path d="M-58 -55 L 58 -55 L 40 -78 L -40 -78 Z" fill="#E87461"/>
    <!-- Porta -->
    <rect x="-8" y="-26" width="16" height="26" fill="#5a3a23"/>
    <circle cx="4" cy="-13" r="1" fill="#D4A54A"/>
    <!-- Janelas -->
    <rect x="-38" y="-44" width="18" height="14" fill="#7ccae0" stroke="#a87545" stroke-width="1.2"/>
    <line x1="-29" y1="-44" x2="-29" y2="-30" stroke="#fff" stroke-width="0.8"/>
    <line x1="-38" y1="-37" x2="-20" y2="-37" stroke="#fff" stroke-width="0.8"/>
    <rect x="20" y="-44" width="18" height="14" fill="#7ccae0" stroke="#a87545" stroke-width="1.2"/>
    <line x1="29" y1="-44" x2="29" y2="-30" stroke="#fff" stroke-width="0.8"/>
    <line x1="20" y1="-37" x2="38" y2="-37" stroke="#fff" stroke-width="0.8"/>
  </g>
  <!-- PLAQUINHA "PAE-DF · Alimentação é currículo" ao lado da escola -->
  <g transform="translate(810 555)">
    <rect x="-1.5" y="0" width="3" height="32" fill="#5a3a23"/>
    <rect x="-50" y="-22" width="100" height="26" rx="3" fill="#fefdf6" stroke="#4A7C59" stroke-width="1.5"/>
    <text x="0" y="-10" text-anchor="middle" font-family="Inter,sans-serif" font-size="9" font-weight="700" fill="#4A7C59" letter-spacing="1.2">PAE-DF</text>
    <line x1="-30" y1="-6" x2="30" y2="-6" stroke="#D4A54A" stroke-width="1.2"/>
    <text x="0" y="0" text-anchor="middle" font-family="Inter,sans-serif" font-size="5.8" fill="#7a6a4a" font-style="italic" letter-spacing="0.5">Alimentação é currículo</text>
  </g>
  <!-- grass -->
  <path d="M0 600 C240 580 420 600 640 595 C860 590 1020 610 1200 600 L1200 800 L0 800Z" fill="url(#grass)"/>
  <!-- flowers -->
  <g>
    <circle cx="150" cy="585" r="6" fill="#E87461"/>
    <circle cx="155" cy="580" r="5" fill="#F5A08F"/>
    <circle cx="350" cy="595" r="5" fill="#D4A54A"/>
    <circle cx="550" cy="590" r="6" fill="#E8C94A"/>
    <circle cx="900" cy="598" r="5" fill="#E87461"/>
    <circle cx="1050" cy="592" r="6" fill="#D4A54A"/>
  </g>
  <!-- pequizeiro tree -->
  <g transform="translate(900 560)">
    <rect x="-8" y="-180" width="16" height="180" rx="4" fill="#8B5E3C"/>
    <circle cx="0" cy="-210" r="60" fill="#4A7C59"/>
    <circle cx="-35" cy="-195" r="40" fill="#3d6a40"/>
    <circle cx="35" cy="-195" r="40" fill="#3d6a40"/>
    <circle cx="-15" cy="-175" r="8" fill="#E8C94A"/>
    <circle cx="20" cy="-220" r="7" fill="#E8C94A"/>
    <circle cx="-30" cy="-210" r="6" fill="#E8C94A"/>
  </g>
  <!-- buriti palm -->
  <g transform="translate(100 570)">
    <rect x="-4" y="-200" width="8" height="200" fill="#8B5E3C" rx="3"/>
    <g stroke="#2F3D1E" stroke-width="5" fill="none" stroke-linecap="round">
      <path d="M0 -200 Q-60 -240 -100 -230"/>
      <path d="M0 -200 Q60 -240 100 -230"/>
      <path d="M0 -200 Q-30 -260 -60 -270"/>
      <path d="M0 -200 Q30 -260 60 -270"/>
      <path d="M0 -200 Q0 -270 -5 -280"/>
    </g>
    <circle cx="-15" cy="-190" r="6" fill="#D4A54A"/>
    <circle cx="15" cy="-185" r="6" fill="#D4A54A"/>
    <circle cx="0" cy="-180" r="6" fill="#D4A54A"/>
  </g>
  <!-- HORTA ESCOLAR GRANDE (primeiro plano direita) -->
  <g transform="translate(1010 720)">
    <!-- Cerca/moldura externa (3 estacas) -->
    <line x1="-185" y1="-90" x2="-185" y2="20" stroke="#5a3a23" stroke-width="3"/>
    <line x1="0" y1="-95" x2="0" y2="20" stroke="#5a3a23" stroke-width="3"/>
    <line x1="185" y1="-90" x2="185" y2="20" stroke="#5a3a23" stroke-width="3"/>
    <line x1="-190" y1="-85" x2="190" y2="-85" stroke="#5a3a23" stroke-width="2.5"/>
    <line x1="-190" y1="-50" x2="190" y2="-50" stroke="#5a3a23" stroke-width="2.5"/>

    <!-- Borda do canteiro maior (madeira) -->
    <rect x="-180" y="-30" width="360" height="50" fill="#8b6238"/>
    <rect x="-180" y="-30" width="360" height="8" fill="#5a3a23"/>
    <rect x="-180" y="14" width="360" height="6" fill="#5a3a23"/>
    <!-- Solo (terra fofa) -->
    <rect x="-170" y="-42" width="340" height="18" fill="#5a3a23"/>
    <rect x="-170" y="-42" width="340" height="6" fill="#3a1f10"/>
    <!-- Texture do solo -->
    <circle cx="-140" cy="-32" r="1.5" fill="#3a1f10" opacity="0.6"/>
    <circle cx="-90" cy="-30" r="1.2" fill="#3a1f10" opacity="0.6"/>
    <circle cx="-30" cy="-32" r="1.5" fill="#3a1f10" opacity="0.6"/>
    <circle cx="40" cy="-30" r="1.2" fill="#3a1f10" opacity="0.6"/>
    <circle cx="90" cy="-33" r="1.5" fill="#3a1f10" opacity="0.6"/>
    <circle cx="140" cy="-30" r="1.2" fill="#3a1f10" opacity="0.6"/>

    <!-- TOMATEIRO 1 (fileira de trás) -->
    <g transform="translate(-150,-42)">
      <line x1="0" y1="0" x2="0" y2="-65" stroke="#4A7C59" stroke-width="3.5"/>
      <line x1="0" y1="-30" x2="-10" y2="-25" stroke="#4A7C59" stroke-width="2"/>
      <line x1="0" y1="-30" x2="10" y2="-30" stroke="#4A7C59" stroke-width="2"/>
      <ellipse cx="-10" cy="-22" rx="8" ry="4" fill="#4A7C59" transform="rotate(-30 -10 -22)"/>
      <ellipse cx="12" cy="-32" rx="9" ry="5" fill="#5A9A6E" transform="rotate(30 12 -32)"/>
      <ellipse cx="-8" cy="-48" rx="9" ry="5" fill="#4A7C59" transform="rotate(-20 -8 -48)"/>
      <ellipse cx="10" cy="-58" rx="8" ry="4" fill="#5A9A6E" transform="rotate(20 10 -58)"/>
      <circle cx="-12" cy="-28" r="6" fill="#E87461"/>
      <circle cx="10" cy="-25" r="5" fill="#c83232"/>
      <circle cx="-5" cy="-58" r="5" fill="#E87461"/>
      <circle cx="8" cy="-50" r="4" fill="#c83232"/>
      <!-- Suporte/estaca -->
      <line x1="2" y1="-65" x2="6" y2="-30" stroke="#a87545" stroke-width="1.5"/>
    </g>

    <!-- PIMENTÃO -->
    <g transform="translate(-100,-42)">
      <line x1="0" y1="0" x2="0" y2="-50" stroke="#4A7C59" stroke-width="3"/>
      <ellipse cx="-7" cy="-15" rx="8" ry="4" fill="#4A7C59" transform="rotate(-30 -7 -15)"/>
      <ellipse cx="8" cy="-30" rx="8" ry="4" fill="#5A9A6E" transform="rotate(30 8 -30)"/>
      <ellipse cx="-5" cy="-44" rx="7" ry="3.5" fill="#4A7C59" transform="rotate(-20 -5 -44)"/>
      <!-- Pimentões coloridos -->
      <path d="M-2 -22 Q -7 -18 -7 -12 Q -7 -8 -3 -8 L 3 -8 Q 7 -8 7 -12 Q 7 -18 2 -22 L 0 -25 Z" fill="#E87461"/>
      <path d="M5 -38 Q 0 -34 0 -28 Q 0 -24 4 -24 L 10 -24 Q 14 -24 14 -28 Q 14 -34 9 -38 L 7 -41 Z" fill="#E8C94A"/>
      <line x1="0" y1="-25" x2="0" y2="-22" stroke="#3D6849" stroke-width="1"/>
    </g>

    <!-- ABÓBORA grande -->
    <g transform="translate(-50,-42)">
      <line x1="0" y1="0" x2="0" y2="-22" stroke="#4A7C59" stroke-width="3"/>
      <ellipse cx="-8" cy="-18" rx="10" ry="5" fill="#4A7C59" transform="rotate(-25 -8 -18)"/>
      <ellipse cx="9" cy="-22" rx="10" ry="5" fill="#5A9A6E" transform="rotate(25 9 -22)"/>
      <circle cx="0" cy="-14" r="14" fill="#f57c00"/>
      <ellipse cx="0" cy="-14" rx="14" ry="14" fill="none"/>
      <path d="M-11 -18 Q -11 -14 -11 -10 M -6 -22 Q -6 -14 -6 -7 M 0 -23 Q 0 -14 0 -5 M 6 -22 Q 6 -14 6 -7 M 11 -18 Q 11 -14 11 -10" stroke="#c25a00" stroke-width="0.8" fill="none"/>
      <line x1="0" y1="-27" x2="-3" y2="-32" stroke="#4A7C59" stroke-width="2"/>
      <ellipse cx="2" cy="-32" rx="4" ry="2" fill="#5A9A6E" transform="rotate(30 2 -32)"/>
    </g>

    <!-- ALFACE com folhas amplas -->
    <g transform="translate(10,-42)">
      <line x1="0" y1="0" x2="0" y2="-12" stroke="#4A7C59" stroke-width="2"/>
      <ellipse cx="-10" cy="-14" rx="11" ry="6" fill="#5A9A6E"/>
      <ellipse cx="10" cy="-14" rx="11" ry="6" fill="#4A7C59"/>
      <ellipse cx="0" cy="-22" rx="14" ry="7" fill="#5A9A6E"/>
      <ellipse cx="-6" cy="-26" rx="8" ry="4" fill="#4A7C59"/>
      <ellipse cx="6" cy="-26" rx="8" ry="4" fill="#5A9A6E"/>
      <ellipse cx="0" cy="-30" rx="6" ry="3" fill="#3D6849"/>
    </g>

    <!-- CENOURA (2 fileiras) -->
    <g transform="translate(55,-42)">
      <path d="M-8 -10 L 8 -10 L 11 16 L -11 16 Z" fill="#f57c00"/>
      <path d="M-8 -10 L 8 -10 L 9 -4 L -9 -4 Z" fill="#FFA040" opacity="0.6"/>
      <path d="M-4 -10 Q -4 -18 -8 -22" stroke="#4A7C59" stroke-width="2.5" fill="none"/>
      <path d="M4 -10 Q 4 -18 8 -22" stroke="#4A7C59" stroke-width="2.5" fill="none"/>
      <path d="M0 -10 Q 0 -20 0 -24" stroke="#4A7C59" stroke-width="2.5" fill="none"/>
      <ellipse cx="-6" cy="-23" rx="4" ry="2" fill="#4A7C59" transform="rotate(-30 -6 -23)"/>
      <ellipse cx="6" cy="-23" rx="4" ry="2" fill="#5A9A6E" transform="rotate(30 6 -23)"/>
      <ellipse cx="0" cy="-26" rx="5" ry="2" fill="#4A7C59"/>
    </g>

    <!-- MILHO -->
    <g transform="translate(105,-42)">
      <line x1="0" y1="0" x2="0" y2="-75" stroke="#4A7C59" stroke-width="3"/>
      <path d="M0 -25 Q -15 -22 -22 -8" stroke="#5A9A6E" stroke-width="4" fill="none" stroke-linecap="round"/>
      <path d="M0 -35 Q 15 -32 22 -18" stroke="#4A7C59" stroke-width="4" fill="none" stroke-linecap="round"/>
      <path d="M0 -50 Q -12 -47 -18 -35" stroke="#5A9A6E" stroke-width="3.5" fill="none" stroke-linecap="round"/>
      <path d="M0 -60 Q 13 -56 19 -45" stroke="#4A7C59" stroke-width="3.5" fill="none" stroke-linecap="round"/>
      <!-- Espiga de milho -->
      <ellipse cx="0" cy="-50" rx="6" ry="14" fill="#E8C94A"/>
      <path d="M-3 -60 L -3 -38 M 3 -60 L 3 -38 M 0 -60 L 0 -38" stroke="#a78930" stroke-width="0.7"/>
      <!-- Cabelo de milho -->
      <path d="M-2 -62 Q -5 -68 -3 -72 M 0 -62 Q 0 -68 0 -75 M 2 -62 Q 5 -68 3 -72" stroke="#D4A54A" stroke-width="1" fill="none" opacity="0.7"/>
    </g>

    <!-- COUVE-FLOR -->
    <g transform="translate(150,-42)">
      <line x1="0" y1="0" x2="0" y2="-18" stroke="#4A7C59" stroke-width="2.5"/>
      <ellipse cx="-9" cy="-18" rx="9" ry="5" fill="#4A7C59" transform="rotate(-25 -9 -18)"/>
      <ellipse cx="9" cy="-18" rx="9" ry="5" fill="#5A9A6E" transform="rotate(25 9 -18)"/>
      <ellipse cx="-5" cy="-22" rx="7" ry="4" fill="#3D6849"/>
      <ellipse cx="5" cy="-22" rx="7" ry="4" fill="#4A7C59"/>
      <!-- Cabeça branca -->
      <circle cx="-4" cy="-28" r="6" fill="#fefdf6"/>
      <circle cx="4" cy="-28" r="6" fill="#fff8e0"/>
      <circle cx="0" cy="-32" r="6" fill="#fefdf6"/>
      <circle cx="-2" cy="-25" r="3.5" fill="#f8f1de"/>
      <circle cx="3" cy="-25" r="3.5" fill="#fff8e0"/>
    </g>

    <!-- CRIANÇA REGANDO A HORTA (lado esquerdo, ao lado do tomateiro) -->
    <g transform="translate(-200,-15)">
      <!-- Pernas -->
      <rect x="-9" y="20" width="8" height="28" rx="2" fill="#4A7C59"/>
      <rect x="1" y="20" width="8" height="28" rx="2" fill="#4A7C59"/>
      <ellipse cx="-5" cy="50" rx="7" ry="3" fill="#3a1f10"/>
      <ellipse cx="5" cy="50" rx="7" ry="3" fill="#3a1f10"/>
      <!-- Corpo (camiseta amarela) -->
      <path d="M-20 -8 L 20 -8 L 26 24 L -26 24 Z" fill="#D4A54A"/>
      <!-- Bolso -->
      <rect x="-7" y="5" width="14" height="10" rx="2" fill="#a87545"/>
      <!-- Braço esquerdo (segurando o regador) -->
      <path d="M-20 -2 Q -30 5 -38 12" stroke="#D4A54A" stroke-width="9" fill="none" stroke-linecap="round"/>
      <circle cx="-38" cy="12" r="5" fill="#fdc998"/>
      <!-- Braço direito -->
      <path d="M20 -2 Q 28 8 26 20" stroke="#D4A54A" stroke-width="9" fill="none" stroke-linecap="round"/>
      <circle cx="26" cy="20" r="5" fill="#fdc998"/>
      <!-- REGADOR AZUL (segurado pelas duas mãos) -->
      <rect x="-48" y="4" width="22" height="18" rx="3" fill="#5b9bd5"/>
      <rect x="-50" y="0" width="9" height="5" rx="1.2" fill="#5b9bd5"/>
      <path d="M-26 9 L -10 4 L -8 9 L -24 14 Z" fill="#5b9bd5"/>
      <rect x="-11" y="2" width="5" height="6" rx="1.2" fill="#2a4a6a"/>
      <!-- Gotinhas caindo -->
      <ellipse cx="-6" cy="17" rx="1.3" ry="2.8" fill="#7ccae0"/>
      <ellipse cx="-3" cy="22" rx="1.3" ry="2.8" fill="#7ccae0"/>
      <ellipse cx="-9" cy="25" rx="1.3" ry="2.8" fill="#7ccae0"/>
      <ellipse cx="-5" cy="30" rx="1.3" ry="2.8" fill="#7ccae0"/>
      <!-- Pescoço -->
      <path d="M-5 -14 L 5 -14 L 6 -8 L -6 -8 Z" fill="#d8a878"/>
      <!-- Cabeça -->
      <ellipse cx="0" cy="-30" rx="16" ry="18" fill="#fdc998"/>
      <ellipse cx="-16" cy="-30" rx="3" ry="4" fill="#d8a878"/>
      <ellipse cx="16" cy="-30" rx="3" ry="4" fill="#d8a878"/>
      <!-- Chapéu de palha -->
      <ellipse cx="0" cy="-45" rx="28" ry="5" fill="#E8C94A"/>
      <ellipse cx="0" cy="-45" rx="26" ry="3.5" fill="#D4A54A"/>
      <path d="M-13 -45 Q -10 -60 0 -62 Q 10 -60 13 -45 Z" fill="#E8C94A"/>
      <rect x="-15" y="-50" width="30" height="3" fill="#E87461"/>
      <!-- Olhos -->
      <ellipse cx="-5" cy="-30" rx="1.8" ry="2.2" fill="#3a1f10"/>
      <ellipse cx="5" cy="-30" rx="1.8" ry="2.2" fill="#3a1f10"/>
      <!-- Bochechas -->
      <circle cx="-10" cy="-22" r="3" fill="#E87461" opacity="0.4"/>
      <circle cx="10" cy="-22" r="3" fill="#E87461" opacity="0.4"/>
      <!-- Sorriso -->
      <path d="M-4 -18 Q 0 -13 4 -18" stroke="#7a2a20" stroke-width="1.4" fill="none" stroke-linecap="round"/>
    </g>

    <!-- BORBOLETA na horta -->
    <g transform="translate(60,-78)" fill="#8B6BAE" opacity="0.7">
      <ellipse cx="-5" cy="0" rx="6" ry="9" transform="rotate(-15)"/>
      <ellipse cx="5" cy="0" rx="6" ry="9" transform="rotate(15)"/>
      <rect x="-0.8" y="-3" width="1.5" height="10" rx="0.8" fill="#5a2f1c"/>
    </g>

    <!-- PLAQUINHA "HORTA" maior -->
    <g transform="translate(-150,-110)">
      <rect x="-2.5" y="0" width="5" height="30" fill="#5a3a23"/>
      <rect x="-38" y="-22" width="76" height="26" rx="3" fill="#fefdf6" stroke="#4A7C59" stroke-width="2"/>
      <text x="0" y="-9" text-anchor="middle" font-family="Inter,sans-serif" font-size="13" font-weight="700" fill="#4A7C59" letter-spacing="1.5">HORTA</text>
      <line x1="-22" y1="-5" x2="22" y2="-5" stroke="#D4A54A" stroke-width="1.5"/>
      <text x="0" y="0" text-anchor="middle" font-family="Inter,sans-serif" font-size="6" fill="#7a6a4a" font-style="italic" letter-spacing="0.5">pedagógica</text>
    </g>
  </g>
  <!-- PROFESSORA (atrás da mesa, olhando os pratos) -->
  <g transform="translate(500 555)">
    <!-- Saia -->
    <path d="M-22 35 L 22 35 L 30 75 L -30 75 Z" fill="#7a2a20"/>
    <ellipse cx="-18" cy="78" rx="8" ry="3" fill="#3a1f10"/>
    <ellipse cx="18" cy="78" rx="8" ry="3" fill="#3a1f10"/>
    <!-- Avental coral -->
    <path d="M-26 -8 L 26 -8 L 30 36 L -30 36 Z" fill="#E87461"/>
    <!-- Gola/decote -->
    <path d="M-10 -8 L 0 2 L 10 -8 L 7 -11 L 0 -4 L -7 -11 Z" fill="#fff"/>
    <!-- Bolso -->
    <rect x="-14" y="14" width="28" height="14" rx="2" fill="#c83232"/>
    <line x1="-14" y1="20" x2="14" y2="20" stroke="#7a2a20" stroke-width="0.8"/>
    <!-- Crachá -->
    <rect x="-22" y="0" width="14" height="10" rx="1.5" fill="#fff"/>
    <line x1="-19" y1="3" x2="-12" y2="3" stroke="#7a2a20" stroke-width="0.7"/>
    <line x1="-19" y1="6" x2="-12" y2="6" stroke="#7a2a20" stroke-width="0.7"/>
    <!-- Braços apontando para mesa -->
    <path d="M-26 -2 Q -36 12 -32 32" stroke="#E87461" stroke-width="11" fill="none" stroke-linecap="round"/>
    <path d="M26 -2 Q 36 12 32 32" stroke="#E87461" stroke-width="11" fill="none" stroke-linecap="round"/>
    <circle cx="-32" cy="34" r="6" fill="#f5d4b0"/>
    <circle cx="32" cy="34" r="6" fill="#f5d4b0"/>
    <!-- Pescoço -->
    <path d="M-6 -14 L 6 -14 L 7 -8 L -7 -8 Z" fill="#f5d4b0"/>
    <!-- Cabeça (sem orelhas escuras) -->
    <ellipse cx="0" cy="-30" rx="18" ry="20" fill="#f5d4b0"/>
    <!-- Cabelo preso (não invade testa) -->
    <path d="M-18 -38 Q -16 -50 0 -52 Q 16 -50 18 -38 L 18 -34 L -18 -34 Z" fill="#5a3a23"/>
    <circle cx="0" cy="-52" r="6" fill="#5a3a23"/>
    <!-- Brincos -->
    <circle cx="-18" cy="-26" r="1.5" fill="#D4A54A"/>
    <circle cx="18" cy="-26" r="1.5" fill="#D4A54A"/>
    <!-- Sobrancelhas -->
    <path d="M-10 -33 Q -7 -35 -3 -33" stroke="#3a1f10" stroke-width="1.4" fill="none" stroke-linecap="round"/>
    <path d="M3 -33 Q 7 -35 10 -33" stroke="#3a1f10" stroke-width="1.4" fill="none" stroke-linecap="round"/>
    <!-- Olhos abertos olhando -->
    <ellipse cx="-6" cy="-28" rx="2.2" ry="2.6" fill="#fff"/>
    <ellipse cx="6" cy="-28" rx="2.2" ry="2.6" fill="#fff"/>
    <circle cx="-6" cy="-27" r="1.5" fill="#3a1f10"/>
    <circle cx="6" cy="-27" r="1.5" fill="#3a1f10"/>
    <circle cx="-5.5" cy="-27.5" r="0.6" fill="#fff"/>
    <circle cx="6.5" cy="-27.5" r="0.6" fill="#fff"/>
    <!-- Bochechas suaves -->
    <circle cx="-11" cy="-21" r="2.5" fill="#E87461" opacity="0.25"/>
    <circle cx="11" cy="-21" r="2.5" fill="#E87461" opacity="0.25"/>
    <!-- Sorriso -->
    <path d="M-5 -18 Q 0 -14 5 -18" stroke="#7a2a20" stroke-width="1.4" fill="none" stroke-linecap="round"/>
  </g>

  <!-- CRIANÇA 1 (esquerda da mesa, criança pequena fofa) -->
  <g transform="translate(360 680)">
    <!-- Perninhas curtas -->
    <rect x="-8" y="22" width="7" height="14" rx="3" fill="#5a3a23"/>
    <rect x="1" y="22" width="7" height="14" rx="3" fill="#5a3a23"/>
    <ellipse cx="-4.5" cy="38" rx="5" ry="2" fill="#3a1f10"/>
    <ellipse cx="4.5" cy="38" rx="5" ry="2" fill="#3a1f10"/>
    <!-- Corpinho pequeno (vestido amarelo) -->
    <path d="M-15 -2 L 15 -2 L 19 26 L -19 26 Z" fill="#D4A54A"/>
    <circle cx="-7" cy="6" r="2" fill="#fff" opacity="0.8"/>
    <circle cx="5" cy="12" r="2" fill="#fff" opacity="0.8"/>
    <circle cx="-2" cy="18" r="2" fill="#fff" opacity="0.8"/>
    <!-- Bracinhos -->
    <path d="M-15 3 Q -20 12 -18 20" stroke="#D4A54A" stroke-width="6" fill="none" stroke-linecap="round"/>
    <path d="M15 3 Q 20 12 18 20" stroke="#D4A54A" stroke-width="6" fill="none" stroke-linecap="round"/>
    <circle cx="-18" cy="20" r="3.5" fill="#fdc998"/>
    <circle cx="18" cy="20" r="3.5" fill="#fdc998"/>
    <!-- CABEÇA GRANDE (proporção criança pequena) -->
    <ellipse cx="0" cy="-25" rx="22" ry="24" fill="#fdc998"/>
    <!-- Cabelinho com marias-chiquinhas -->
    <ellipse cx="0" cy="-42" rx="22" ry="11" fill="#6e4828"/>
    <circle cx="-16" cy="-46" r="7" fill="#6e4828"/>
    <circle cx="16" cy="-46" r="7" fill="#6e4828"/>
    <!-- Lacinhos coral grandes -->
    <circle cx="-24" cy="-40" r="4.5" fill="#E87461"/>
    <circle cx="24" cy="-40" r="4.5" fill="#E87461"/>
    <path d="M-29 -42 L -19 -38 L -29 -34 Z" fill="#E87461"/>
    <path d="M29 -42 L 19 -38 L 29 -34 Z" fill="#E87461"/>
    <!-- Franja -->
    <path d="M-12 -30 Q -10 -22 -3 -24 L -1 -28 Q -8 -32 -12 -30 Z" fill="#5a3a23"/>
    <!-- Olhos GRANDES com brilho -->
    <ellipse cx="-7" cy="-23" rx="3.5" ry="4" fill="#fff"/>
    <ellipse cx="7" cy="-23" rx="3.5" ry="4" fill="#fff"/>
    <circle cx="-7" cy="-22" r="2.5" fill="#3a1f10"/>
    <circle cx="7" cy="-22" r="2.5" fill="#3a1f10"/>
    <circle cx="-6" cy="-23.5" r="1" fill="#fff"/>
    <circle cx="8" cy="-23.5" r="1" fill="#fff"/>
    <!-- Bochechas BEM rosadas e grandes -->
    <circle cx="-13" cy="-13" r="5" fill="#E87461" opacity="0.5"/>
    <circle cx="13" cy="-13" r="5" fill="#E87461" opacity="0.5"/>
    <!-- Naricinho -->
    <path d="M-1 -13 Q 0 -10 1 -13" stroke="#c89875" stroke-width="0.9" fill="none"/>
    <!-- Sorriso aberto fofo -->
    <path d="M-5 -8 Q 0 -2 5 -8" stroke="#7a2a20" stroke-width="1.8" fill="none" stroke-linecap="round"/>
  </g>

  <!-- CRIANÇA 2 (centro-esquerda, criança pequena) -->
  <g transform="translate(440 695)">
    <rect x="-8" y="22" width="7" height="14" rx="3" fill="#3a1f10"/>
    <rect x="1" y="22" width="7" height="14" rx="3" fill="#3a1f10"/>
    <ellipse cx="-4.5" cy="38" rx="5" ry="2" fill="#2a1408"/>
    <ellipse cx="4.5" cy="38" rx="5" ry="2" fill="#2a1408"/>
    <!-- Camiseta verde -->
    <path d="M-15 -2 L 15 -2 L 19 26 L -19 26 Z" fill="#4A7C59"/>
    <line x1="-18" y1="8" x2="18" y2="8" stroke="#7CB98A" stroke-width="2.5"/>
    <path d="M-15 3 Q -20 12 -18 20" stroke="#4A7C59" stroke-width="6" fill="none" stroke-linecap="round"/>
    <path d="M15 3 Q 20 12 18 20" stroke="#4A7C59" stroke-width="6" fill="none" stroke-linecap="round"/>
    <circle cx="-18" cy="20" r="3.5" fill="#8b5e3c"/>
    <circle cx="18" cy="20" r="3.5" fill="#8b5e3c"/>
    <!-- CABEÇA GRANDE -->
    <ellipse cx="0" cy="-25" rx="22" ry="24" fill="#8b5e3c"/>
    <!-- Cabelo black power fofinho -->
    <ellipse cx="0" cy="-40" rx="24" ry="14" fill="#2a1408"/>
    <circle cx="-16" cy="-44" r="8" fill="#2a1408"/>
    <circle cx="16" cy="-44" r="8" fill="#2a1408"/>
    <circle cx="0" cy="-52" r="7" fill="#2a1408"/>
    <circle cx="-10" cy="-54" r="5" fill="#2a1408"/>
    <circle cx="10" cy="-54" r="5" fill="#2a1408"/>
    <!-- Olhos GRANDES -->
    <ellipse cx="-7" cy="-23" rx="3.5" ry="4" fill="#fff"/>
    <ellipse cx="7" cy="-23" rx="3.5" ry="4" fill="#fff"/>
    <circle cx="-7" cy="-22" r="2.5" fill="#3a1f10"/>
    <circle cx="7" cy="-22" r="2.5" fill="#3a1f10"/>
    <circle cx="-6" cy="-23.5" r="1" fill="#fff"/>
    <circle cx="8" cy="-23.5" r="1" fill="#fff"/>
    <!-- Bochechas -->
    <circle cx="-13" cy="-13" r="5" fill="#E87461" opacity="0.45"/>
    <circle cx="13" cy="-13" r="5" fill="#E87461" opacity="0.45"/>
    <!-- Sorriso aberto com dentinho -->
    <path d="M-5 -8 Q 0 -2 5 -8" stroke="#7a2a20" stroke-width="1.8" fill="#7a2a20" stroke-linecap="round"/>
    <rect x="-2" y="-7" width="4" height="2.5" fill="#fff"/>
  </g>

  <!-- CRIANÇA 3 (centro-direita, criança pequena) -->
  <g transform="translate(560 695)">
    <rect x="-8" y="22" width="7" height="14" rx="3" fill="#5a3a23"/>
    <rect x="1" y="22" width="7" height="14" rx="3" fill="#5a3a23"/>
    <ellipse cx="-4.5" cy="38" rx="5" ry="2" fill="#3a1f10"/>
    <ellipse cx="4.5" cy="38" rx="5" ry="2" fill="#3a1f10"/>
    <!-- Camiseta azul -->
    <path d="M-15 -2 L 15 -2 L 19 26 L -19 26 Z" fill="#5b9bd5"/>
    <line x1="-18" y1="8" x2="18" y2="8" stroke="#fff" stroke-width="2.5"/>
    <path d="M-15 3 Q -20 12 -18 20" stroke="#5b9bd5" stroke-width="6" fill="none" stroke-linecap="round"/>
    <path d="M15 3 Q 20 12 18 20" stroke="#5b9bd5" stroke-width="6" fill="none" stroke-linecap="round"/>
    <circle cx="-18" cy="20" r="3.5" fill="#fdc998"/>
    <circle cx="18" cy="20" r="3.5" fill="#fdc998"/>
    <!-- CABEÇA GRANDE -->
    <ellipse cx="0" cy="-25" rx="22" ry="24" fill="#fdc998"/>
    <!-- Cabelo cacheado -->
    <ellipse cx="0" cy="-40" rx="23" ry="12" fill="#6e4828"/>
    <circle cx="-16" cy="-44" r="7" fill="#6e4828"/>
    <circle cx="16" cy="-44" r="7" fill="#6e4828"/>
    <circle cx="-7" cy="-50" r="5" fill="#6e4828"/>
    <circle cx="7" cy="-50" r="5" fill="#6e4828"/>
    <circle cx="0" cy="-52" r="5" fill="#6e4828"/>
    <!-- Olhos GRANDES -->
    <ellipse cx="-7" cy="-23" rx="3.5" ry="4" fill="#fff"/>
    <ellipse cx="7" cy="-23" rx="3.5" ry="4" fill="#fff"/>
    <circle cx="-7" cy="-22" r="2.5" fill="#3a1f10"/>
    <circle cx="7" cy="-22" r="2.5" fill="#3a1f10"/>
    <circle cx="-6" cy="-23.5" r="1" fill="#fff"/>
    <circle cx="8" cy="-23.5" r="1" fill="#fff"/>
    <!-- Bochechas -->
    <circle cx="-13" cy="-13" r="5" fill="#E87461" opacity="0.5"/>
    <circle cx="13" cy="-13" r="5" fill="#E87461" opacity="0.5"/>
    <!-- Naricinho -->
    <path d="M-1 -13 Q 0 -10 1 -13" stroke="#c89875" stroke-width="0.9" fill="none"/>
    <!-- Sorriso -->
    <path d="M-5 -8 Q 0 -2 5 -8" stroke="#7a2a20" stroke-width="1.8" fill="none" stroke-linecap="round"/>
  </g>

  <!-- CRIANÇA 4 (direita da mesa, criança pequena) -->
  <g transform="translate(640 680)">
    <rect x="-8" y="22" width="7" height="14" rx="3" fill="#5a3a23"/>
    <rect x="1" y="22" width="7" height="14" rx="3" fill="#5a3a23"/>
    <ellipse cx="-4.5" cy="38" rx="5" ry="2" fill="#3a1f10"/>
    <ellipse cx="4.5" cy="38" rx="5" ry="2" fill="#3a1f10"/>
    <!-- Camiseta coral -->
    <path d="M-15 -2 L 15 -2 L 19 26 L -19 26 Z" fill="#E87461"/>
    <circle cx="0" cy="12" r="4.5" fill="#fff" opacity="0.7"/>
    <path d="M-15 3 Q -20 12 -18 20" stroke="#E87461" stroke-width="6" fill="none" stroke-linecap="round"/>
    <path d="M15 3 Q 20 12 18 20" stroke="#E87461" stroke-width="6" fill="none" stroke-linecap="round"/>
    <circle cx="-18" cy="20" r="3.5" fill="#fdc998"/>
    <circle cx="18" cy="20" r="3.5" fill="#fdc998"/>
    <!-- CABEÇA GRANDE -->
    <ellipse cx="0" cy="-25" rx="22" ry="24" fill="#fdc998"/>
    <!-- Cabelo curto bagunçadinho -->
    <path d="M-20 -34 Q -14 -50 0 -50 Q 14 -50 20 -34 L 18 -26 Q 12 -32 6 -28 Q 0 -34 -6 -28 Q -12 -32 -18 -26 Z" fill="#a87545"/>
    <!-- Olhos GRANDES -->
    <ellipse cx="-7" cy="-23" rx="3.5" ry="4" fill="#fff"/>
    <ellipse cx="7" cy="-23" rx="3.5" ry="4" fill="#fff"/>
    <circle cx="-7" cy="-22" r="2.5" fill="#3a1f10"/>
    <circle cx="7" cy="-22" r="2.5" fill="#3a1f10"/>
    <circle cx="-6" cy="-23.5" r="1" fill="#fff"/>
    <circle cx="8" cy="-23.5" r="1" fill="#fff"/>
    <!-- Bochechas -->
    <circle cx="-13" cy="-13" r="5" fill="#E87461" opacity="0.5"/>
    <circle cx="13" cy="-13" r="5" fill="#E87461" opacity="0.5"/>
    <path d="M-1 -13 Q 0 -10 1 -13" stroke="#c89875" stroke-width="0.9" fill="none"/>
    <path d="M-5 -8 Q 0 -2 5 -8" stroke="#7a2a20" stroke-width="1.8" fill="none" stroke-linecap="round"/>
  </g>
  <!-- table with food -->
  <g transform="translate(500 620)">
    <rect x="-120" y="-20" width="240" height="12" rx="3" fill="#c8905d"/>
    <rect x="-100" y="-8" width="8" height="50" fill="#8B5E3C"/>
    <rect x="92" y="-8" width="8" height="50" fill="#8B5E3C"/>
    <!-- plates -->
    <ellipse cx="-60" cy="-28" rx="28" ry="10" fill="#fdf5e6"/>
    <circle cx="-65" cy="-32" r="5" fill="#E87461"/>
    <circle cx="-55" cy="-34" r="4" fill="#4A7C59"/>
    <circle cx="-62" cy="-28" r="4" fill="#D4A54A"/>
    <ellipse cx="0" cy="-28" rx="28" ry="10" fill="#fdf5e6"/>
    <circle cx="-5" cy="-32" r="5" fill="#8B5E3C"/>
    <circle cx="5" cy="-34" r="4" fill="#E8C94A"/>
    <circle cx="0" cy="-28" r="6" fill="#4A7C59"/>
    <ellipse cx="60" cy="-28" rx="28" ry="10" fill="#fdf5e6"/>
    <circle cx="55" cy="-32" r="5" fill="#E87461"/>
    <circle cx="65" cy="-30" r="5" fill="#D4A54A"/>
    <!-- juice glasses -->
    <rect x="-90" y="-42" width="10" height="16" rx="2" fill="#F5A08F" opacity="0.7"/>
    <rect x="80" y="-42" width="10" height="16" rx="2" fill="#E8C94A" opacity="0.7"/>
  </g>
</svg>